<?xml version="1.0" encoding="utf-8"?>
<!-- Generator: Adobe Illustrator 18.1.0, SVG Export Plug-In . SVG Version: 6.00 Build 0)  -->
<!DOCTYPE svg PUBLIC "-//W3C//DTD SVG 1.1//EN" "http://www.w3.org/Graphics/SVG/1.1/DTD/svg11.dtd">
<svg version="1.1" id="Layer_1" xmlns="http://www.w3.org/2000/svg" xmlns:xlink="http://www.w3.org/1999/xlink" x="0px" y="0px"
	 viewBox="0 0 575 312" enable-background="new 0 0 575 312" xml:space="preserve">
<path fill="#3D2E20" d="M545.5,312h-516C13.2,312,0,298.8,0,282.5v-253C0,13.2,13.2,0,29.5,0h516C561.8,0,575,13.2,575,29.5v253
	C575,298.8,561.8,312,545.5,312z M182.8,101.1h-80.5v6.7c4.2,0,7.3,0.4,9.3,1.3c2.1,0.9,3.4,2.1,4,3.7c0.6,1.6,0.9,3.8,0.9,6.6v61.8
	c0,4.2-0.9,7.2-2.6,9c-1.7,1.8-5.6,2.6-11.6,2.6v6.7h50.5v-6.7h-2c-5.9,0-9.6-0.9-11.2-2.8c-1.6-1.9-2.4-4.8-2.4-8.8v-29.2h8.9
	c3.1,0,5.5,0.3,7.1,0.9c1.6,0.6,2.7,1.8,3.3,3.4c0.7,1.6,1.1,4.4,1.3,8.1h6.8v-32.7H158c-0.3,5.1-1.2,8.4-2.8,9.9
	c-1.5,1.5-4.5,2.2-8.8,2.2h-9.2v-34.7h17.5c4.4,0,7.9,0.3,10.4,0.9c2.5,0.6,4.7,2.1,6.7,4.6c2,2.5,3.6,6.5,4.8,12h6.8L182.8,101.1z
	 M296.9,192.8c-2.6-0.2-4.7-0.8-6.3-1.6c-1.7-0.8-3.5-2.5-5.5-4.9c-2-2.4-4.5-5.9-7.5-10.6c-5.3-8.2-9.1-13.9-11.6-16.9
	c-2.5-3.1-5.5-5.6-9-7.7c5.2-1.4,9.3-3.3,12.5-5.7c3.2-2.4,5.5-5.2,6.9-8.3c1.4-3.1,2.1-6.3,2.1-9.6c0-4.6-1-8.6-3.1-12.1
	c-2.1-3.5-4.7-6.3-8-8.4c-3.3-2.1-6.7-3.6-10.3-4.6c-2.5-0.7-5.8-1.2-10.1-1.7c-4.3-0.4-8.8-0.7-13.7-0.9c-3.5-0.1-6-0.1-7.5-0.1
	c-1.9,0-4,0-6.3,0.1c-2.2,0-4.2,0.1-6,0.2l-22.8,0.7v6.8c6.1,0,10,0.9,11.6,2.6c1.7,1.8,2.5,4.8,2.5,9v62.1c0,4.3-0.9,7.3-2.6,9
	c-1.7,1.7-5.6,2.6-11.6,2.6v6.7h49.3v-6.7c-4.1,0-7.2-0.4-9.4-1.3c-2.2-0.9-3.5-2.1-4.1-3.8c-0.6-1.6-0.9-3.8-0.9-6.5v-25.7h3.7
	c4.7,0,8,0.3,10,0.8s3.7,1.7,5.2,3.5c1.5,1.8,3.8,5.2,6.8,10.1l6.7,11c1.1,1.8,2.5,4,4.2,6.8c1.7,2.7,3.3,5.1,4.7,7.1
	c1.4,2,2.6,3.6,3.6,4.6h26.3V192.8z M248.8,143.9c-5,2.4-11.1,3.6-18.4,3.6h-4.6v-39.5c0.8,0,1.5,0,2.1,0c0.6,0,1.4,0,2.5,0
	c7.7,0,13.9,1.3,18.7,3.8c4.8,2.6,7.1,7.8,7.1,15.6C256.2,136,253.7,141.5,248.8,143.9z M386.1,167.1c-1.2,7.5-3.2,13-6.1,16.5
	c-2.9,3.5-5.9,5.7-8.9,6.5s-6.2,1.3-9.5,1.3h-7.9c-3.5,0-6.2-0.3-8.2-0.8c-1.9-0.5-3.3-1.4-4.1-2.6c-0.8-1.2-1.4-2.7-1.6-4.5
	c-0.2-1.8-0.3-4.6-0.3-8.5v-23.1h10.2c3.4,0,6,0.3,7.7,0.9s2.9,1.7,3.7,3.4c0.8,1.7,1.3,4.4,1.5,8h6.7v-32.7h-7
	c-0.2,3.6-0.7,6.3-1.4,8c-0.7,1.7-1.9,2.8-3.6,3.4c-1.7,0.6-4.3,0.9-7.7,0.9h-10v-34.7h18.4c4.9,0,8.5,0.3,11,0.8
	c2.4,0.6,4.6,2.1,6.6,4.5c2,2.4,3.7,6.5,5.2,12.1h6.7l-1.3-25.5h-81.6v6.7c4.3,0,7.5,0.4,9.5,1.3c2.1,0.9,3.4,2.1,3.9,3.7
	c0.6,1.6,0.8,3.8,0.8,6.6v61.8c0,4.3-0.9,7.3-2.6,9c-1.7,1.7-5.6,2.6-11.7,2.6v6.7h87.6l0.8-32.3H386.1z M479.5,167.1
	c-1.2,7.5-3.2,13-6.1,16.5c-2.9,3.5-5.9,5.7-8.9,6.5s-6.2,1.3-9.5,1.3h-7.9c-3.5,0-6.2-0.3-8.2-0.8c-1.9-0.5-3.3-1.4-4.1-2.6
	c-0.8-1.2-1.4-2.7-1.6-4.5c-0.2-1.8-0.3-4.6-0.3-8.5v-23.1h10.2c3.4,0,6,0.3,7.7,0.9s2.9,1.7,3.7,3.4c0.8,1.7,1.3,4.4,1.5,8h6.7
	v-32.7h-7c-0.2,3.6-0.7,6.3-1.4,8c-0.7,1.7-1.9,2.8-3.6,3.4c-1.7,0.6-4.3,0.9-7.7,0.9h-10v-34.7h18.4c4.9,0,8.5,0.3,11,0.8
	c2.4,0.6,4.6,2.1,6.6,4.5c2,2.4,3.7,6.5,5.2,12.1h6.7l-1.3-25.5h-81.6v6.7c4.3,0,7.5,0.4,9.5,1.3c2.1,0.9,3.4,2.1,3.9,3.7
	c0.6,1.6,0.8,3.8,0.8,6.6v61.8c0,4.3-0.9,7.3-2.6,9c-1.7,1.7-5.6,2.6-11.7,2.6v6.7h87.6l0.8-32.3H479.5z"/>
</svg>
