<?xml version="1.0" encoding="utf-8"?>
<!-- Generator: Adobe Illustrator 18.1.0, SVG Export Plug-In . SVG Version: 6.00 Build 0)  -->
<!DOCTYPE svg PUBLIC "-//W3C//DTD SVG 1.1//EN" "http://www.w3.org/Graphics/SVG/1.1/DTD/svg11.dtd">
<svg version="1.1" id="Layer_1" xmlns="http://www.w3.org/2000/svg" xmlns:xlink="http://www.w3.org/1999/xlink" x="0px" y="0px"
	 viewBox="108 0 396 393.2" style="enable-background:new 108 0 396 393.2;" xml:space="preserve">
<path d="M504,196.6c0,108.6-88.5,196.6-198,196.6s-198-88-198-196.6S196.6,0,306,0S504,88,504,196.6z M341.5,104.8h1.6
	c0.3-6.1,3.9-9.4,10.5-9.4h1.9v31.1c0,3.6-0.3,5.8-1.1,6.3s-2.2,0.8-4.4,1.1v1.9h24.2v-1.9c-2.2,0-3.6-0.6-4.4-1.4
	c-0.8-0.8-1.1-2.8-1.1-5.8v-31h1.9c4.1,0,6.6,0.8,8,2.8c1.4,1.6,2.2,3.9,2.2,6.6h1.9V92.9h-41.2V104.8z M386.9,94.9
	c2.5,0,3.9,0.3,4.7,1.1c0.8,0.8,1.1,2.8,1.1,5.8v24.8c0,3-0.3,4.9-1.1,5.8s-2.2,1.4-4.7,1.4v1.9h14.9v-1.9c-2.2,0-3.9-0.3-4.7-1.1
	c-0.8-0.6-1.1-1.4-1.4-2.2c0-0.8,0-1.9,0-3.8V99.8l16.8,35.5h1.4l17-35.5v26.9c0,2.7-0.3,4.7-1.1,5.5s-2.5,1.4-5,1.4v1.9h24.5v-1.9
	c-2.2-0.3-3.6-0.6-4.4-1.6c-0.8-0.8-1.1-2.8-1.1-5.2v-25c0-3,0.3-4.9,1.1-5.8c0.5-0.8,2.2-1.4,4.4-1.4v-1.9h-18.4l-12.1,26.4
	l-12.4-26.4h-19.5L386.9,94.9L386.9,94.9z M176.8,134.2c-20.4,20.1-30.5,44.6-30.5,73.4c0,28.6,10.2,53.1,30.5,73.4
	s44.8,30.5,73.4,30.5s53.3-10.2,73.4-30.5c20.4-20.4,30.5-44.8,30.5-73.4c0-18.4-4.7-36-14.3-52.5S317.3,126,301,116.9
	c-16.5-8.8-33.3-13.2-50.9-13.2C221.6,103.7,197.1,113.9,176.8,134.2z M294.7,128.4c14,8,25.3,19,33.5,33.3s12.4,29.4,12.4,45.9
	c0,25-8.8,46.5-26.7,64.1c-17.9,17.9-39.1,26.7-64.1,26.7s-46.2-8.8-64.1-26.7s-26.7-39-26.7-64.1c0-16.2,4.1-31.6,12.4-45.9
	s19.5-25.3,33.8-33.3c14-8,29.1-11.8,44.6-11.8C265.6,116.6,280.7,120.7,294.7,128.4z M293.4,144.9c-0.5,4.9-3,7.4-6.6,7.4
	c-1.4,0-3.6-0.6-6.9-1.6c-10.7-3.9-20.4-5.8-28.9-5.8c-18.1,0-33.6,6.1-45.9,18.1c-12.4,12.1-18.4,27.2-18.4,45.6
	c0,19,6.1,33.5,17.9,44.3s26.4,16,43.4,16c19.5,0,34.9-6.3,46.7-18.7V240c-11,13.5-23.6,20.4-37.9,20.4c-10.7,0-19.8-4.1-27-12.6
	c-7.1-8.5-10.7-22.8-10.7-42.9c0-15.9,3.3-28.6,9.6-38.2c6.3-9.6,16-14.6,28.3-14.6c8.8,0,16.5,2.8,23.4,8.5
	c6.9,5.8,11,13.5,12.6,23.4h5.5v-39.1L293.4,144.9L293.4,144.9z"/>
</svg>
