<?xml version="1.0" encoding="utf-8"?>
<!-- Generator: Adobe Illustrator 18.1.0, SVG Export Plug-In . SVG Version: 6.00 Build 0)  -->
<!DOCTYPE svg PUBLIC "-//W3C//DTD SVG 1.1//EN" "http://www.w3.org/Graphics/SVG/1.1/DTD/svg11.dtd">
<svg version="1.1" id="Layer_1" xmlns="http://www.w3.org/2000/svg" xmlns:xlink="http://www.w3.org/1999/xlink" x="0px" y="0px"
	 viewBox="0.4 363.4 576.8 100.2" enable-background="new 0.4 363.4 576.8 100.2" xml:space="preserve">
<g enable-background="new    ">
	<path fill="#3B736D" d="M25.7,371.5h-4.9c-3.3,0-6.5,0-8.1,0.8s-3.3,2.4-4.1,4.9s-1.6,4.9-2.4,8.1H0.4V365h71.7v20.4h-6.5
		c-0.8-5.7-2.4-9.8-4.9-11.4c-2.4-1.6-5.7-3.3-9.8-3.3h-5.7v50.5c0,3.3,0.8,5.7,1.6,7.3c0.8,1.6,3.3,1.6,7.3,1.6h1.6v4.9H16.7v-5.7
		h1.6c3.3,0,5.7-0.8,7.3-1.6c0.8-1.6,1.6-3.3,1.6-6.5L25.7,371.5L25.7,371.5z"/>
	<path fill="#3B736D" d="M104.7,421.2l7.3-15.5c1.6-2.4,1.6-4.1,1.6-4.9c0-1.6-1.6-2.4-4.9-2.4v-5.7h17.9v5.7
		c-2.4,0-3.3,0.8-4.9,1.6c-1.6,0.8-3.3,4.9-5.7,11.4l-17.1,35c-3.3,7.3-5.7,11.4-8.1,13.9c-2.4,2.4-4.9,3.3-8.1,3.3
		c-2.4,0-4.1-0.8-5.7-2.4c-1.6-1.6-2.4-3.3-2.4-4.9c0-3.3,2.4-5.7,7.3-7.3c4.9-0.8,7.3-2.4,9-3.3c1.6-1.6,3.3-4.1,4.9-7.3
		l-19.6-31.8l-0.8-1.6c-1.6-2.4-2.4-4.1-3.3-4.9c-0.8-0.8-1.6-0.8-4.1-0.8v-4.9h27.7v5.7c-2.4,0-4.1,0.8-4.1,2.4
		c0,0.8,0.8,1.6,1.6,4.1L104.7,421.2z"/>
</g>
<g enable-background="new    ">
	<path fill="#3B736D" d="M157.6,432.6v17.9c0,2.4,0.8,4.9,1.6,5.7c0.8,0.8,2.4,0.8,5.7,0.8h1.6v5.7H134v-5.7c3.3,0,4.9-0.8,5.7-1.6
		s1.6-2.4,1.6-5.7v-41.6c0-2.4-0.8-4.9-1.6-5.7c-0.8-0.8-3.3-1.6-5.7-1.6v-5.7l22.8-4.1c0.8,2.4,0.8,4.9,0.8,7.3
		c2.4-2.4,4.9-4.9,8.1-5.7c2.4-1.6,5.7-1.6,9-1.6c5.7,0,10.6,2.4,14.7,6.5s6.5,9.8,6.5,17.1c0,7.3-2.4,13-6.5,17.9
		c-4.1,4.9-9.8,6.5-15.5,6.5c-2.4,0-5.7-0.8-8.1-1.6C162.5,435.9,160.1,434.3,157.6,432.6z M157.6,426.1c1.6,1.6,3.3,2.4,4.9,3.3
		c1.6,0.8,3.3,0.8,4.9,0.8c3.3,0,5.7-1.6,7.3-4.1c1.6-2.4,2.4-6.5,2.4-11.4c0-5.7-0.8-9.8-2.4-12.2c-1.6-2.4-4.1-4.1-6.5-4.1
		s-4.1,0.8-5.7,2.4s-3.3,3.3-4.1,4.9L157.6,426.1L157.6,426.1z"/>
</g>
<g enable-background="new    ">
	<path fill="#3B736D" d="M217.9,413.9c0,5.7,0.8,10.6,3.3,13c1.6,3.3,4.9,4.1,9,4.1s8.1-2.4,11.4-6.5l4.9,3.3
		c-1.6,3.3-4.9,5.7-9,7.3s-8.1,3.3-13,3.3c-7.3,0-13-2.4-17.9-6.5c-4.9-4.1-7.3-9.8-7.3-17.1s2.4-13,7.3-17.1
		c4.9-4.1,10.6-6.5,17.9-6.5c6.5,0,12.2,1.6,17.1,5.7c4.1,4.1,6.5,9.8,6.5,17.9L217.9,413.9L217.9,413.9z M217.9,409.8h13.9
		c0-8.1-2.4-12.2-7.3-12.2c-2.4,0-4.1,0.8-4.9,3.3C217.9,402.5,217.9,405.7,217.9,409.8z"/>
</g>
<g enable-background="new    ">
	<path fill="#3B736D" d="M281.5,405.7v17.1c0,3.3,0.8,5.7,1.6,7.3c0.8,1.6,3.3,1.6,7.3,1.6h1.6v5.7H253v-5.7h1.6
		c3.3,0,5.7-0.8,7.3-1.6c0.8-1.6,1.6-3.3,1.6-6.5v-42.4c0-3.3-0.8-5.7-1.6-7.3c-0.8-1.6-3.3-1.6-7.3-1.6H253v-5.7h28.5h6.5
		c6.5,0,11.4,0,13.9,0.8c3.3,0.8,5.7,1.6,9,3.3s4.9,4.1,6.5,6.5s2.4,5.7,2.4,9c0,9-4.9,14.7-14.7,17.9c2.4,1.6,6.5,6.5,12.2,15.5
		c4.1,6.5,7.3,10.6,9,12.2c1.6,1.6,4.1,2.4,5.7,2.4v5.7h-22c-2.4-2.4-5.7-9-11.4-18.7c-2.4-4.9-4.9-8.1-5.7-9.8
		c-0.8-1.6-2.4-2.4-3.3-2.4S285.5,405.7,281.5,405.7z M281.5,398.4c5.7,0,9.8,0,12.2-0.8s4.1-2.4,4.9-4.1c1.6-2.4,1.6-4.9,1.6-8.1
		c0-4.9-0.8-9-3.3-10.6c-2.4-1.6-6.5-3.3-12.2-3.3c-0.8,0-1.6,0-3.3,0C281.5,371.5,281.5,398.4,281.5,398.4z"/>
</g>
<g enable-background="new    ">
	<path fill="#3B736D" d="M360.5,391.9v31.8c0,2.4,0.8,4.9,1.6,5.7c0.8,0.8,3.3,1.6,5.7,1.6v5.7h-31.8V431h1.6c3.3,0,4.9-0.8,5.7-1.6
		c0.8-0.8,0.8-3.3,0.8-5.7v-16.3c0-2.4-0.8-4.9-1.6-5.7c-0.8-0.8-2.4-1.6-5.7-1.6h-1.6v-5.7L360.5,391.9z M343.4,373.2
		c0-2.4,0.8-4.9,2.4-6.5s4.1-3.3,6.5-3.3s4.9,0.8,6.5,2.4s2.4,4.1,2.4,6.5s-0.8,4.9-2.4,6.5s-4.1,2.4-6.5,2.4s-4.9-0.8-6.5-3.3
		S343.4,375.6,343.4,373.2z"/>
</g>
<g enable-background="new    ">
	<path fill="#3B736D" d="M384.9,421.2c-4.1-0.8-7.3-3.3-9-5.7c-2.4-2.4-3.3-5.7-3.3-9c0-4.9,2.4-9,6.5-11.4
		c4.1-2.4,9.8-4.1,17.1-4.1c4.1,0,7.3,0,9.8,0.8c3.3,0.8,4.9,1.6,7.3,3.3c4.1-3.3,7.3-4.9,9.8-4.9c3.3,0,5.7,1.6,5.7,4.9
		c0,3.3-1.6,4.1-4.1,4.1c-0.8,0-2.4-0.8-4.1-1.6c-0.8-0.8-0.8-0.8-1.6-0.8c-0.8,0-1.6,0.8-2.4,1.6c1.6,2.4,2.4,4.9,2.4,7.3
		c0,4.1-1.6,8.1-4.9,11.4c-3.3,3.3-9.8,4.9-18.7,4.9c-4.1,0-6.5,0.8-8.1,0.8c-1.6,0.8-2.4,1.6-2.4,3.3s2.4,2.4,7.3,2.4
		c0.8,0,3.3,0,7.3,0c1.6,0,2.4,0,4.1,0c8.1,0,13.9,0.8,17.1,3.3c3.3,2.4,4.9,6.5,4.9,11.4c0,5.7-2.4,10.6-7.3,13.9
		c-5.7,2.4-13,4.9-22,4.9s-15.5-0.8-18.7-3.3c-3.3-2.4-4.9-4.9-4.9-8.1c0-1.6,0.8-3.3,1.6-4.9c1.6-0.8,2.4-1.6,4.1-1.6
		s2.4,0.8,4.9,1.6c0,0.8-0.8,1.6-0.8,1.6c0,0.8,0,0.8,0,1.6c0,2.4,1.6,4.1,4.1,5.7c2.4,1.6,6.5,1.6,11.4,1.6
		c6.5,0,10.6-0.8,13.9-2.4s4.9-4.1,4.9-6.5s-0.8-4.1-3.3-4.9s-7.3-0.8-14.7-0.8c-8.1,0-14.7-0.8-17.9-2.4s-5.7-4.9-5.7-9
		c0-3.3,0.8-5.7,2.4-7.3C378.4,422.9,381.7,422,384.9,421.2z M389,406.6c0,3.3,0.8,5.7,1.6,8.1c0.8,1.6,2.4,2.4,4.9,2.4
		s3.3-0.8,4.9-2.4c0.8-1.6,1.6-4.9,1.6-8.1s-0.8-5.7-1.6-6.5s-2.4-2.4-4.9-2.4s-4.1,0.8-4.9,2.4S389,404.1,389,406.6z"/>
</g>
<g enable-background="new    ">
	<path fill="#3B736D" d="M451.7,407.4v17.1c0,2.4,0,4.1,0.8,5.7c0.8,0.8,2.4,1.6,4.1,1.6v5.7h-29.3v-5.7c3.3,0,4.9-0.8,5.7-1.6
		c0.8-0.8,1.6-3.3,1.6-5.7v-43.2c0-2.4-0.8-4.9-1.6-5.7c-0.8-0.8-2.4-1.6-5.7-1.6v-5.7l23.6-4.1v35c2.4-2.4,4.9-4.9,7.3-5.7
		c2.4-1.6,5.7-1.6,9-1.6c4.1,0,6.5,0.8,9.8,2.4c3.3,1.6,4.1,3.3,4.9,5.7s1.6,5.7,1.6,9.8v14.7c0,2.4,0.8,4.9,1.6,5.7
		c0.8,0.8,2.4,1.6,5.7,1.6v5.7h-29.3v-5.7c1.6,0,2.4-0.8,4.1-1.6c0.8-0.8,1.6-2.4,1.6-5.7v-17.1c0-4.9-1.6-7.3-4.9-7.3
		c-1.6,0-3.3,0.8-4.9,1.6C455,403.3,453.4,405.7,451.7,407.4z"/>
</g>
<g enable-background="new    ">
	<path fill="#3B736D" d="M512.9,399.2v22c0,4.1,0,6.5,0.8,7.3c0.8,1.6,1.6,1.6,3.3,1.6c2.4,0,4.1-1.6,5.7-4.1l4.9,1.6
		c-2.4,6.5-9,10.6-17.1,10.6c-4.9,0-9-0.8-11.4-3.3c-2.4-2.4-4.1-5.7-4.1-10.6v-25.3h-6.5v-5.7h1.6c4.1,0,8.1-1.6,11.4-4.1
		s4.9-6.5,5.7-10.6h5.7v14.7h13v5.7L512.9,399.2L512.9,399.2z"/>
	<path fill="#3B736D" d="M531.6,438.3v-14.7h4.9c2.4,5.7,8.1,9,15.5,9c3.3,0,5.7-0.8,8.1-1.6s3.3-2.4,3.3-3.3c0-0.8-0.8-2.4-1.6-2.4
		c-0.8-0.8-4.1-1.6-7.3-2.4c-6.5-1.6-10.6-2.4-13.9-3.3c-3.3-0.8-5.7-3.3-7.3-4.9c-1.6-2.4-2.4-4.9-2.4-8.1c0-4.9,1.6-8.1,5.7-10.6
		c3.3-2.4,8.1-4.1,14.7-4.1c4.9,0,9.8,0.8,14.7,2.4c0.8-0.8,1.6-1.6,2.4-2.4h4.1l0.8,13h-4.1c-2.4-5.7-8.1-8.1-16.3-8.1
		c-2.4,0-4.9,0.8-6.5,1.6s-2.4,1.6-2.4,3.3s0.8,2.4,2.4,3.3c1.6,0.8,4.9,1.6,9.8,2.4c5.7,0.8,9.8,2.4,12.2,3.3
		c2.4,0.8,4.9,2.4,6.5,4.9s2.4,4.9,2.4,7.3c0,4.9-2.4,8.1-6.5,11.4s-9,4.1-15.5,4.1c-4.9,0-9.8-0.8-14.7-3.3
		c-0.8,0.8-1.6,1.6-2.4,3.3L531.6,438.3L531.6,438.3z"/>
</g>
</svg>
