<?xml version="1.0" encoding="utf-8"?>
<!-- Generator: Adobe Illustrator 18.1.0, SVG Export Plug-In . SVG Version: 6.00 Build 0)  -->
<!DOCTYPE svg PUBLIC "-//W3C//DTD SVG 1.1//EN" "http://www.w3.org/Graphics/SVG/1.1/DTD/svg11.dtd">
<svg version="1.1" id="Layer_1" xmlns="http://www.w3.org/2000/svg" xmlns:xlink="http://www.w3.org/1999/xlink" x="0px" y="0px"
	 viewBox="0 72 576 576" enable-background="new 0 72 576 576" xml:space="preserve">
<path fill="#35281E" d="M576,360c0,159.2-128.8,288-288,288S0,519.2,0,360S128.8,72,288,72S576,200.8,576,360z M413.6,205.6H168v20
	c12.8,0,22.4,0.8,28,4s10.4,6.4,12,11.2s3.2,12,3.2,20v188c0,12.8-3.2,22.4-8,27.2s-16.8,8-35.2,8v20h153.6v-20h-6.4
	c-17.6,0-29.6-2.4-33.6-8.8c-4.8-5.6-7.2-14.4-7.2-26.4V360h27.2c9.6,0,16.8,0.8,21.6,2.4c4.8,1.6,8,5.6,9.6,10.4
	c1.6,5.6,3.2,13.6,4,24.8h20.8v-99.2h-20c-0.8,16-4,25.6-8,30.4c-4.8,4-13.6,6.4-26.4,6.4h-28V230.4H328c13.6,0,24,0.8,32,3.2
	c8,1.6,14.4,6.4,20,14.4s11.2,20,14.4,36.8H416L413.6,205.6z"/>
</svg>
