<?xml version="1.0" encoding="utf-8"?>
<!-- Generator: Adobe Illustrator 18.1.0, SVG Export Plug-In . SVG Version: 6.00 Build 0)  -->
<!DOCTYPE svg PUBLIC "-//W3C//DTD SVG 1.1//EN" "http://www.w3.org/Graphics/SVG/1.1/DTD/svg11.dtd">
<svg version="1.1" id="Layer_1" xmlns="http://www.w3.org/2000/svg" xmlns:xlink="http://www.w3.org/1999/xlink" x="0px" y="0px"
	 viewBox="0 220.8 576 571.2" enable-background="new 0 220.8 576 571.2" xml:space="preserve">
<path fill="#35281E" d="M576,506.4C576,664,447.2,792,288,792S0,664.8,0,506.4s128.8-285.6,288-285.6S576,348.8,576,506.4z
	 M340,373.6h2.4c0.8-8.8,5.6-13.6,15.2-13.6h2.4v44.8c0,5.6-0.8,8.8-1.6,8.8c-0.8,0.8-3.2,0.8-6.4,1.6v2.4h35.2v-2.4
	c-3.2,0-5.6-0.8-6.4-2.4c-0.8-0.8-1.6-4-1.6-8.8v-44.8h2.4c5.6,0,9.6,0.8,12,4c2.4,2.4,3.2,5.6,3.2,9.6h2.4v-17.6h-60v18.4H340
	L340,373.6z M405.6,359.2c4,0,5.6,0.8,7.2,1.6c0.8,0.8,1.6,4,1.6,8.8v35.2c0,4-0.8,7.2-1.6,8.8c-0.8,1.6-3.2,2.4-7.2,2.4v2.4h21.6
	V416c-3.2,0-5.6-0.8-7.2-1.6c-0.8-0.8-1.6-2.4-2.4-3.2c0-0.8,0-2.4,0-5.6v-39.2l24.8,52h2.4l24.8-52v38.4c0,4-0.8,7.2-1.6,8
	c-0.8,0.8-4,2.4-7.2,2.4v2.4h36v-2.4c-3.2-0.8-5.6-0.8-6.4-2.4c-0.8-0.8-1.6-4-1.6-7.2v-36c0-4,0.8-7.2,1.6-8.8
	c0.8-0.8,3.2-2.4,6.4-2.4V356h-26.4l-17.6,38.4L434.4,356h-28L405.6,359.2L405.6,359.2z M100,416c-29.6,29.6-44,64.8-44,106.4
	s15.2,77.6,44,106.4c28.8,28.8,64.8,44,106.4,44s77.6-15.2,106.4-44c29.6-29.6,44-64.8,44-106.4c0-26.4-7.2-52-20.8-76
	c-13.6-24-32.8-42.4-56.8-55.2c-24-12.8-48.8-19.2-74.4-19.2C165.6,372,129.6,386.4,100,416z M271.2,407.2c20,12,36.8,28,48.8,48.8
	s18.4,42.4,18.4,66.4c0,36-12.8,68-39.2,93.6c-26.4,26.4-56.8,39.2-93.6,39.2S138.4,642.4,112,616s-39.2-56.8-39.2-93.6
	c0-23.2,5.6-45.6,18.4-66.4s28-36.8,48.8-48.8c20-12,42.4-16.8,64.8-16.8C229.6,390.4,251.2,396,271.2,407.2z M269.6,431.2
	c-0.8,7.2-4,10.4-9.6,10.4c-2.4,0-5.6-0.8-10.4-2.4c-15.2-5.6-29.6-8.8-42.4-8.8c-26.4,0-48.8,8.8-66.4,26.4
	c-18.4,17.6-26.4,39.2-26.4,66.4c0,28,8.8,48.8,26.4,64.8s38.4,23.2,63.2,23.2c28,0,50.4-8.8,68-27.2v-15.2
	c-16,20-34.4,29.6-55.2,29.6c-15.2,0-28.8-5.6-39.2-18.4c-10.4-12-15.2-32.8-15.2-62.4c0-23.2,4.8-41.6,13.6-55.2
	s23.2-21.6,40.8-21.6c12.8,0,24,4,34.4,12c10.4,8.8,16,20,18.4,34.4h8v-56.8h-8V431.2z"/>
</svg>
