<?xml version="1.0" encoding="utf-8"?>
<!-- Generator: Adobe Illustrator 18.1.0, SVG Export Plug-In . SVG Version: 6.00 Build 0)  -->
<!DOCTYPE svg PUBLIC "-//W3C//DTD SVG 1.1//EN" "http://www.w3.org/Graphics/SVG/1.1/DTD/svg11.dtd">
<svg version="1.1" id="Layer_1" xmlns="http://www.w3.org/2000/svg" xmlns:xlink="http://www.w3.org/1999/xlink" x="0px" y="0px"
	 viewBox="0 0 72 72" style="enable-background:new 0 0 72 72;" xml:space="preserve">
<path d="M72,36c0,19.9-16.1,36-36,36S0,55.9,0,36S16.1,0,36,0S72,16.1,72,36z M12.8,18.4l4.6,31.4c0,0,0.5,12.5,11.4,10.5l30.4-4.6
	c0,0-5.2-1.5-8.6-21.3l-2.9-21.4L12.8,18.4z M33.5,20.3c0.3,1.8-1,3.4-2.8,3.7c-1.8,0.3-3.4-1-3.7-2.8c-0.3-1.8,1-3.4,2.8-3.7
	C31.6,17.2,33.2,18.5,33.5,20.3z M20.8,36.9l-0.3-0.4c-0.3-0.3-0.3-0.8,0-1l4.1-5.1c0.3-0.4,0.8-0.4,1.1-0.1l4.7,3.3
	c0.4,0.3,0.9,0.1,1.1-0.1l3-3.8c0.3-0.4,0.8-0.4,1.1-0.1l4.6,3.2c0.4,0.3,0.9,0.1,1.1-0.1l2.3-2.9c0.3-0.4,0.8-0.4,1.1-0.1l0.5,0.4
	c0.4,0.3,0.5,0.8,0.1,1.1L42.3,35c-0.3,0.4-0.8,0.4-1.1,0.1l-4.7-3.4c-0.4-0.3-0.9-0.1-1.1,0.1l-3.2,3.9c-0.3,0.4-0.8,0.4-1.1,0.1
	l-4.3-3.4c-0.4-0.3-0.9-0.3-1.1,0.1l-3.4,4.3C21.8,37.3,21.2,37.3,20.8,36.9z M46,37.8l0.3,0.4c0.3,0.3,0.3,0.8,0,1l-4.1,5.1
	c-0.3,0.4-0.8,0.4-1.1,0.1l-4.7-3.3c-0.4-0.3-0.9-0.1-1.1,0.1l-3,3.8c-0.3,0.4-0.8,0.4-1.1,0.1l-4.4-2.9c-0.4-0.3-0.9-0.1-1.1,0.1
	l-2.3,2.9c-0.3,0.4-0.8,0.4-1.1,0.1l-0.5-0.3c-0.4-0.3-0.5-0.8-0.1-1.1l3.2-3.9c0.3-0.4,0.8-0.4,1.1-0.1l4.7,3.3
	c0.4,0.3,0.9,0.1,1.1-0.1l3.2-3.9c0.3-0.4,0.8-0.4,1.1-0.1l4.3,3.4c0.4,0.3,0.9,0.3,1.1-0.1l3.4-4.3C45,37.4,45.6,37.4,46,37.8z"/>
</svg>
