<?xml version="1.0" encoding="utf-8"?>
<!-- Generator: Adobe Illustrator 18.1.0, SVG Export Plug-In . SVG Version: 6.00 Build 0)  -->
<!DOCTYPE svg PUBLIC "-//W3C//DTD SVG 1.1//EN" "http://www.w3.org/Graphics/SVG/1.1/DTD/svg11.dtd">
<svg version="1.1" id="Layer_1" xmlns="http://www.w3.org/2000/svg" xmlns:xlink="http://www.w3.org/1999/xlink" x="0px" y="0px"
	 viewBox="0.4 54.3 70.7 12.3" style="enable-background:new 0.4 54.3 70.7 12.3;" xml:space="preserve">
<g style="enable-background:new    ;">
	<path d="M3.5,55.2H2.9c-0.4,0-0.8,0-1,0.1c-0.2,0.1-0.4,0.3-0.5,0.6c-0.1,0.3-0.2,0.6-0.3,1H0.4v-2.5h8.8v2.5H8.4
		c-0.1-0.7-0.3-1.2-0.6-1.4c-0.3-0.2-0.7-0.4-1.2-0.4H5.9v6.2c0,0.4,0.1,0.7,0.2,0.9c0.1,0.2,0.4,0.2,0.9,0.2h0.2V63H2.4v-0.7h0.2
		c0.4,0,0.7-0.1,0.9-0.2c0.1-0.2,0.2-0.4,0.2-0.8L3.5,55.2L3.5,55.2z"/>
	<path d="M13.2,61.3l0.9-1.9c0.2-0.3,0.2-0.5,0.2-0.6c0-0.2-0.2-0.3-0.6-0.3v-0.7h2.2v0.7c-0.3,0-0.4,0.1-0.6,0.2
		c-0.2,0.1-0.4,0.6-0.7,1.4l-2.1,4.3c-0.4,0.9-0.7,1.4-1,1.7s-0.6,0.4-1,0.4c-0.3,0-0.5-0.1-0.7-0.3s-0.3-0.4-0.3-0.6
		c0-0.4,0.3-0.7,0.9-0.9c0.6-0.1,0.9-0.3,1.1-0.4c0.2-0.2,0.4-0.5,0.6-0.9l-2.4-3.9l-0.1-0.2c-0.2-0.3-0.3-0.5-0.4-0.6
		c-0.1-0.1-0.2-0.1-0.5-0.1V58h3.4v0.7c-0.3,0-0.5,0.1-0.5,0.3c0,0.1,0.1,0.2,0.2,0.5L13.2,61.3z"/>
</g>
<g style="enable-background:new    ;">
	<path d="M19.7,62.7v2.2c0,0.3,0.1,0.6,0.2,0.7c0.1,0.1,0.3,0.1,0.7,0.1h0.2v0.7h-4v-0.7c0.4,0,0.6-0.1,0.7-0.2
		c0.1-0.1,0.2-0.3,0.2-0.7v-5.1c0-0.3-0.1-0.6-0.2-0.7c-0.1-0.1-0.4-0.2-0.7-0.2v-0.7l2.8-0.5c0.1,0.3,0.1,0.6,0.1,0.9
		c0.3-0.3,0.6-0.6,1-0.7c0.3-0.2,0.7-0.2,1.1-0.2c0.7,0,1.3,0.3,1.8,0.8c0.5,0.5,0.8,1.2,0.8,2.1c0,0.9-0.3,1.6-0.8,2.2
		c-0.5,0.6-1.2,0.8-1.9,0.8c-0.3,0-0.7-0.1-1-0.2C20.3,63.1,20,62.9,19.7,62.7z M19.7,61.9c0.2,0.2,0.4,0.3,0.6,0.4
		c0.2,0.1,0.4,0.1,0.6,0.1c0.4,0,0.7-0.2,0.9-0.5c0.2-0.3,0.3-0.8,0.3-1.4c0-0.7-0.1-1.2-0.3-1.5c-0.2-0.3-0.5-0.5-0.8-0.5
		c-0.3,0-0.5,0.1-0.7,0.3s-0.4,0.4-0.5,0.6L19.7,61.9L19.7,61.9z"/>
</g>
<g style="enable-background:new    ;">
	<path d="M27.1,60.4c0,0.7,0.1,1.3,0.4,1.6c0.2,0.4,0.6,0.5,1.1,0.5c0.5,0,1-0.3,1.4-0.8l0.6,0.4c-0.2,0.4-0.6,0.7-1.1,0.9
		c-0.5,0.2-1,0.4-1.6,0.4c-0.9,0-1.6-0.3-2.2-0.8s-0.9-1.2-0.9-2.1s0.3-1.6,0.9-2.1c0.6-0.5,1.3-0.8,2.2-0.8c0.8,0,1.5,0.2,2.1,0.7
		c0.5,0.5,0.8,1.2,0.8,2.2L27.1,60.4L27.1,60.4z M27.1,59.9h1.7c0-1-0.3-1.5-0.9-1.5c-0.3,0-0.5,0.1-0.6,0.4
		C27.1,59,27.1,59.4,27.1,59.9z"/>
</g>
<g style="enable-background:new    ;">
	<path d="M34.9,59.4v2.1c0,0.4,0.1,0.7,0.2,0.9c0.1,0.2,0.4,0.2,0.9,0.2h0.2v0.7h-4.8v-0.7h0.2c0.4,0,0.7-0.1,0.9-0.2
		c0.1-0.2,0.2-0.4,0.2-0.8v-5.2c0-0.4-0.1-0.7-0.2-0.9c-0.1-0.2-0.4-0.2-0.9-0.2h-0.2v-0.7h3.5h0.8c0.8,0,1.4,0,1.7,0.1
		c0.4,0.1,0.7,0.2,1.1,0.4s0.6,0.5,0.8,0.8c0.2,0.3,0.3,0.7,0.3,1.1c0,1.1-0.6,1.8-1.8,2.2c0.3,0.2,0.8,0.8,1.5,1.9
		c0.5,0.8,0.9,1.3,1.1,1.5c0.2,0.2,0.5,0.3,0.7,0.3v0.7h-2.7c-0.3-0.3-0.7-1.1-1.4-2.3c-0.3-0.6-0.6-1-0.7-1.2
		c-0.1-0.2-0.3-0.3-0.4-0.3S35.4,59.4,34.9,59.4z M34.9,58.5c0.7,0,1.2,0,1.5-0.1c0.3-0.1,0.5-0.3,0.6-0.5c0.2-0.3,0.2-0.6,0.2-1
		c0-0.6-0.1-1.1-0.4-1.3c-0.3-0.2-0.8-0.4-1.5-0.4c-0.1,0-0.2,0-0.4,0C34.9,55.2,34.9,58.5,34.9,58.5z"/>
</g>
<g style="enable-background:new    ;">
	<path d="M44.6,57.7v3.9c0,0.3,0.1,0.6,0.2,0.7c0.1,0.1,0.4,0.2,0.7,0.2v0.7h-3.9v-0.7h0.2c0.4,0,0.6-0.1,0.7-0.2
		c0.1-0.1,0.1-0.4,0.1-0.7v-2c0-0.3-0.1-0.6-0.2-0.7c-0.1-0.1-0.3-0.2-0.7-0.2h-0.2v-0.7L44.6,57.7z M42.5,55.4
		c0-0.3,0.1-0.6,0.3-0.8c0.2-0.2,0.5-0.4,0.8-0.4s0.6,0.1,0.8,0.3c0.2,0.2,0.3,0.5,0.3,0.8s-0.1,0.6-0.3,0.8
		c-0.2,0.2-0.5,0.3-0.8,0.3S43,56.3,42.8,56C42.6,55.7,42.5,55.7,42.5,55.4z"/>
</g>
<g style="enable-background:new    ;">
	<path d="M47.6,61.3c-0.5-0.1-0.9-0.4-1.1-0.7c-0.3-0.3-0.4-0.7-0.4-1.1c0-0.6,0.3-1.1,0.8-1.4c0.5-0.3,1.2-0.5,2.1-0.5
		c0.5,0,0.9,0,1.2,0.1c0.4,0.1,0.6,0.2,0.9,0.4c0.5-0.4,0.9-0.6,1.2-0.6c0.4,0,0.7,0.2,0.7,0.6c0,0.4-0.2,0.5-0.5,0.5
		c-0.1,0-0.3-0.1-0.5-0.2c-0.1-0.1-0.1-0.1-0.2-0.1c-0.1,0-0.2,0.1-0.3,0.2c0.2,0.3,0.3,0.6,0.3,0.9c0,0.5-0.2,1-0.6,1.4
		c-0.4,0.4-1.2,0.6-2.3,0.6c-0.5,0-0.8,0.1-1,0.1c-0.2,0.1-0.3,0.2-0.3,0.4c0,0.2,0.3,0.3,0.9,0.3c0.1,0,0.4,0,0.9,0
		c0.2,0,0.3,0,0.5,0c1,0,1.7,0.1,2.1,0.4c0.4,0.3,0.6,0.8,0.6,1.4c0,0.7-0.3,1.3-0.9,1.7C51,66,50.1,66.3,49,66.3
		c-1.1,0-1.9-0.1-2.3-0.4c-0.4-0.3-0.6-0.6-0.6-1c0-0.2,0.1-0.4,0.2-0.6c0.2-0.1,0.3-0.2,0.5-0.2c0.2,0,0.3,0.1,0.6,0.2
		c0,0.1-0.1,0.2-0.1,0.2c0,0.1,0,0.1,0,0.2c0,0.3,0.2,0.5,0.5,0.7c0.3,0.2,0.8,0.2,1.4,0.2c0.8,0,1.3-0.1,1.7-0.3s0.6-0.5,0.6-0.8
		c0-0.3-0.1-0.5-0.4-0.6s-0.9-0.1-1.8-0.1c-1,0-1.8-0.1-2.2-0.3c-0.4-0.2-0.7-0.6-0.7-1.1c0-0.4,0.1-0.7,0.3-0.9
		C46.8,61.5,47.2,61.4,47.6,61.3z M48.1,59.5c0,0.4,0.1,0.7,0.2,1c0.1,0.2,0.3,0.3,0.6,0.3c0.3,0,0.4-0.1,0.6-0.3
		c0.1-0.2,0.2-0.6,0.2-1c0-0.4-0.1-0.7-0.2-0.8s-0.3-0.3-0.6-0.3c-0.3,0-0.5,0.1-0.6,0.3S48.1,59.2,48.1,59.5z"/>
</g>
<g style="enable-background:new    ;">
	<path d="M55.8,59.6v2.1c0,0.3,0,0.5,0.1,0.7c0.1,0.1,0.3,0.2,0.5,0.2v0.7h-3.6v-0.7c0.4,0,0.6-0.1,0.7-0.2c0.1-0.1,0.2-0.4,0.2-0.7
		v-5.3c0-0.3-0.1-0.6-0.2-0.7c-0.1-0.1-0.3-0.2-0.7-0.2v-0.7l2.9-0.5v4.3c0.3-0.3,0.6-0.6,0.9-0.7c0.3-0.2,0.7-0.2,1.1-0.2
		c0.5,0,0.8,0.1,1.2,0.3s0.5,0.4,0.6,0.7c0.1,0.3,0.2,0.7,0.2,1.2v1.8c0,0.3,0.1,0.6,0.2,0.7c0.1,0.1,0.3,0.2,0.7,0.2v0.7h-3.6v-0.7
		c0.2,0,0.3-0.1,0.5-0.2c0.1-0.1,0.2-0.3,0.2-0.7v-2.1c0-0.6-0.2-0.9-0.6-0.9c-0.2,0-0.4,0.1-0.6,0.2C56.2,59.1,56,59.4,55.8,59.6z"
		/>
</g>
<g style="enable-background:new    ;">
	<path d="M63.3,58.6v2.7c0,0.5,0,0.8,0.1,0.9c0.1,0.2,0.2,0.2,0.4,0.2c0.3,0,0.5-0.2,0.7-0.5l0.6,0.2c-0.3,0.8-1.1,1.3-2.1,1.3
		c-0.6,0-1.1-0.1-1.4-0.4c-0.3-0.3-0.5-0.7-0.5-1.3v-3.1h-0.8v-0.7h0.2c0.5,0,1-0.2,1.4-0.5c0.4-0.3,0.6-0.8,0.7-1.3h0.7v1.8h1.6
		v0.7H63.3z"/>
	<path d="M65.6,63.4v-1.8h0.6c0.3,0.7,1,1.1,1.9,1.1c0.4,0,0.7-0.1,1-0.2s0.4-0.3,0.4-0.4s-0.1-0.3-0.2-0.3
		c-0.1-0.1-0.5-0.2-0.9-0.3c-0.8-0.2-1.3-0.3-1.7-0.4c-0.4-0.1-0.7-0.4-0.9-0.6c-0.2-0.3-0.3-0.6-0.3-1c0-0.6,0.2-1,0.7-1.3
		c0.4-0.3,1-0.5,1.8-0.5c0.6,0,1.2,0.1,1.8,0.3c0.1-0.1,0.2-0.2,0.3-0.3h0.5l0.1,1.6h-0.5c-0.3-0.7-1-1-2-1c-0.3,0-0.6,0.1-0.8,0.2
		s-0.3,0.2-0.3,0.4s0.1,0.3,0.3,0.4c0.2,0.1,0.6,0.2,1.2,0.3c0.7,0.1,1.2,0.3,1.5,0.4c0.3,0.1,0.6,0.3,0.8,0.6s0.3,0.6,0.3,0.9
		c0,0.6-0.3,1-0.8,1.4s-1.1,0.5-1.9,0.5c-0.6,0-1.2-0.1-1.8-0.4c-0.1,0.1-0.2,0.2-0.3,0.4H65.6z"/>
</g>
</svg>
