<?xml version="1.0" encoding="utf-8"?>
<!-- Generator: Adobe Illustrator 18.1.0, SVG Export Plug-In . SVG Version: 6.00 Build 0)  -->
<!DOCTYPE svg PUBLIC "-//W3C//DTD SVG 1.1//EN" "http://www.w3.org/Graphics/SVG/1.1/DTD/svg11.dtd">
<svg version="1.1" id="Layer_1" xmlns="http://www.w3.org/2000/svg" xmlns:xlink="http://www.w3.org/1999/xlink" x="0px" y="0px"
	 viewBox="0 90 612 608.6" enable-background="new 0 90 612 608.6" xml:space="preserve">
<ellipse fill="#3D2E1F" cx="306" cy="394.3" rx="306" ry="304.3"/>
<g enable-background="new    ">
	<path fill="#E0DFDD" d="M414.8,350.1c0,2.5-0.8,4.2-2.5,6s-4.2,2.5-6.8,2.5s-5.1-0.9-6.8-2.5c-1.7-1.7-2.6-3.4-3.4-6
		c0-2.5,0.8-4.2,2.5-6s4.2-2.5,6.8-2.5c2.6,0,5.1,0.9,6.8,2.5C414,345,414.8,347.5,414.8,350.1z"/>
	<path fill="#E0DFDD" d="M480.2,311.9c0,6,0,11.9-1.7,17s-3.4,10.2-6.8,14.5c-2.5,4.2-6.8,7.6-11,10.2c-4.2,2.5-9.4,3.4-15.3,4.2
		c-5.1,0-9.4-0.9-11.9-2.6c-2.5-1.7-4.2-3.4-4.2-5.9c0-1.7,0.8-2.6,1.7-3.4c0.8-0.8,2.5-1.7,4.2-1.7s2.5,0,3.4,0.9
		c0.9,0.8,1.7,1.7,3.4,3.4c2.5,2.5,5.1,3.4,7.7,3.4c3.4,0,6.8-1.7,8.5-5.1c1.7-3.4,3.4-6.8,4.2-10.2c0.8-3.4,0.8-7.6,1.7-11.9
		c-2.5,1.7-4.2,2.5-5.9,3.4c-2.6,0.9-5.1,1.7-7.7,1.7c-3.4,0-6.8-0.9-10.2-1.7c-3.4-1.7-6.8-4.2-9.3-7.6s-4.2-7.6-4.2-13.6
		c0-5.1,0.8-10.2,3.4-14.5c2.6-4.2,6-6.8,9.4-9.4c4.2-1.7,7.6-3.4,11.9-3.4c2.6,0,6,0,9.4,1.7c3.4,0.9,6,2.5,9.3,5.1
		c2.5,2.5,5.1,6,7.7,10.2C478.5,300.8,479.4,305.9,480.2,311.9z M464.1,304.2c0-5.1-0.8-10.2-2.5-13.6s-5.1-5.1-9.3-5.1
		c-3.4,0-5.1,0.9-6.8,3.4c-1.7,1.7-2.6,4.2-2.6,6.8s0,6.8,0,11.9c0,2.6,0,5.1,0.9,7.6c0.8,2.6,1.7,4.2,3.4,6.8
		c1.7,1.7,4.2,2.5,6.8,2.5c4.2,0,7.6-2.5,8.5-6C463.2,314.4,464.1,309.3,464.1,304.2z"/>
	<path fill="#E0DFDD" d="M543.2,310.1c0,6,0,11.9-1.7,17s-3.4,10.2-6.8,14.5c-2.5,4.2-6.8,7.6-11,10.2c-4.2,2.5-9.3,3.4-15.3,4.2
		c-5.1,0-9.3-0.9-11.9-2.5c-2.6-1.7-4.2-3.4-4.2-6c0-1.7,0.8-2.5,1.7-3.4s2.6-1.7,4.2-1.7c1.7,0,2.6,0,3.4,0.9
		c0.8,0.9,1.7,1.7,3.4,3.4c2.5,2.5,5.1,3.4,7.6,3.4c3.4,0,6.8-1.7,8.5-5.1s3.4-6.8,4.2-10.2c0.8-3.4,0.8-7.6,1.7-11.9
		c-2.5,1.7-4.2,2.5-6,3.4c-2.6,0.9-5.1,1.7-7.7,1.7c-3.4,0-6.8-0.9-10.2-1.7c-3.4-1.7-6.8-4.2-9.4-7.6c-2.5-3.4-4.2-7.6-4.2-13.6
		c0-5.1,0.9-10.2,3.4-14.5c2.5-4.2,6-6.8,9.3-9.4c4.2-1.7,7.7-3.4,11.9-3.4c2.5,0,5.9,0,9.3,1.7c3.4,0.9,6,2.5,9.3,5.1
		c2.5,2.5,5.1,6,7.7,10.2C541.5,298.2,542.3,303.4,543.2,310.1z M527,301.6c0-5.1-0.8-10.2-2.5-13.6s-5.1-5.1-9.3-5.1
		c-3.4,0-5.1,0.9-6.8,3.4c-1.7,1.7-2.5,4.2-2.5,6.8c0,2.5,0,6.8,0,11.9c0,2.5,0,5.1,0.8,7.6c0.9,2.5,1.7,4.2,3.4,6.8
		c1.7,1.7,4.3,2.5,6.8,2.5c4.2,0,7.6-2.5,8.5-6C526.2,311.9,527,306.8,527,301.6z"/>
</g>
<line fill="none" stroke="#E0DFDD" stroke-width="8" stroke-miterlimit="10" x1="394.4" y1="371.3" x2="557.6" y2="371.3"/>
<g>
	<path fill="#E0DFDD" d="M201.5,503.1h-102v-16.1h7.7c6.8,0,11.9-0.9,15.3-2.5c3.4-1.7,5.1-4.2,6-6.8c0.9-2.5,0.9-7.6,0.9-14.4
		V334.8c0-6.8-0.9-11-1.7-14.5c-0.9-3.4-3.4-5.1-7.6-6.8c-3.4-0.9-9.4-1.7-17.8-1.7h-5.9v-15.3c18.7-2.5,32.3-5.1,39.9-6.8
		c7.6-2.5,14.5-6,21.2-10.2h15.3v187c0,7.7,1.7,12.8,4.2,16.2c2.6,3.4,7.7,4.2,16.2,4.2h9.3v16.1L201.5,503.1L201.5,503.1z"/>
	<path fill="#E0DFDD" d="M370.6,378.2c0,17.8-2.5,34-6.8,50.1c-4.2,16.2-10.2,29.8-18.7,41.7c-8.5,11.9-17.8,21.2-30.6,28
		c-11.9,6.8-26.3,10.2-41.7,10.2c-14.4,0-25.5-2.5-32.3-7.7c-6.8-5.1-10.2-11-10.2-17.8c0-4.2,1.7-7.7,4.2-10.2
		c2.5-2.5,6.8-5.1,11-5.1s6.8,0.8,9.4,3.4c2.6,1.7,5.1,5.1,9.3,10.2c6,7.7,12.8,11.9,20.4,11.9c10.2,0,17.8-4.2,23-13.6
		c5.1-9.3,9.3-18.7,11-29.8s3.4-22.1,5.1-34.8c-6.8,4.2-11.9,6.8-16.1,8.5c-6.8,2.5-12.8,4.2-19.5,4.2c-8.5,0-17.9-2.5-28.1-6.8
		c-10.2-5.1-17.8-12.8-24.6-23c-6.8-10.2-10.2-23.8-10.2-40c0-16.1,3.4-29.8,10.2-41.6c6.8-11.9,16.1-20.4,27.2-26.4
		c11.1-6,22.1-8.5,33.1-8.5c7.7,0,15.3,1.7,23.8,5.1s16.2,8.5,23.8,16.1s13.6,17.9,18.7,30.6C367.2,345.9,370.6,359.5,370.6,378.2z
		 M328.1,352.6c0-16.1-1.7-29.8-5.9-40.8c-4.2-11-11.9-16.1-24.7-16.1c-8.5,0-14.5,2.5-18.7,8.5c-4.2,5.1-6.8,12.8-7.6,20.4
		c-0.9,8.5-1.7,19.6-1.7,34c0,8.5,0.9,16.2,1.7,23.8c0.9,6.8,3.4,13.6,7.6,19.5s10.2,8.5,18.7,8.5c12.8,0,20.4-6,24.7-17.9
		C326.4,381.5,328.1,368,328.1,352.6z"/>
</g>
</svg>
