<?xml version="1.0" encoding="utf-8"?>
<!-- Generator: Adobe Illustrator 18.1.0, SVG Export Plug-In . SVG Version: 6.00 Build 0)  -->
<!DOCTYPE svg PUBLIC "-//W3C//DTD SVG 1.1//EN" "http://www.w3.org/Graphics/SVG/1.1/DTD/svg11.dtd">
<svg version="1.1" id="Layer_1" xmlns="http://www.w3.org/2000/svg" xmlns:xlink="http://www.w3.org/1999/xlink" x="0px" y="0px"
	 viewBox="0 72 576 576" enable-background="new 0 72 576 576" xml:space="preserve">
<path fill="#35281E" d="M576,360c0,159.2-128.8,288-288,288S0,519.2,0,360S128.8,72,288,72S576,200.8,576,360z M102.4,219.2
	l36.8,251.2c0,0,4,100,91.2,84l243.2-36.8c0,0-41.6-12-68.8-170.4L381.6,176L102.4,219.2z M268,234.4c2.4,14.4-8,27.2-22.4,29.6
	c-14.4,2.4-27.2-8-29.6-22.4c-2.4-14.4,8-27.2,22.4-29.6C252.8,209.6,265.6,220,268,234.4z M166.4,367.2L164,364
	c-2.4-2.4-2.4-6.4,0-8l32.8-40.8c2.4-3.2,6.4-3.2,8.8-0.8l37.6,26.4c3.2,2.4,7.2,0.8,8.8-0.8l24-30.4c2.4-3.2,6.4-3.2,8.8-0.8
	l36.8,25.6c3.2,2.4,7.2,0.8,8.8-0.8l18.4-23.2c2.4-3.2,6.4-3.2,8.8-0.8l4,3.2c3.2,2.4,4,6.4,0.8,8.8l-24,30.4
	c-2.4,3.2-6.4,3.2-8.8,0.8L292,325.6c-3.2-2.4-7.2-0.8-8.8,0.8l-25.6,31.2c-2.4,3.2-6.4,3.2-8.8,0.8l-34.4-27.2
	c-3.2-2.4-7.2-2.4-8.8,0.8l-27.2,34.4C174.4,370.4,169.6,370.4,166.4,367.2z M368,374.4l2.4,3.2c2.4,2.4,2.4,6.4,0,8l-32.8,40.8
	c-2.4,3.2-6.4,3.2-8.8,0.8l-37.6-26.4c-3.2-2.4-7.2-0.8-8.8,0.8l-24,30.4c-2.4,3.2-6.4,3.2-8.8,0.8l-35.2-23.2
	c-3.2-2.4-7.2-0.8-8.8,0.8l-18.4,23.2c-2.4,3.2-6.4,3.2-8.8,0.8l-4-2.4c-3.2-2.4-4-6.4-0.8-8.8l25.6-31.2c2.4-3.2,6.4-3.2,8.8-0.8
	l37.6,26.4c3.2,2.4,7.2,0.8,8.8-0.8l25.6-31.2c2.4-3.2,6.4-3.2,8.8-0.8l34.4,27.2c3.2,2.4,7.2,2.4,8.8-0.8l27.2-34.4
	C360,371.2,364.8,371.2,368,374.4z"/>
</svg>
