<?xml version="1.0" encoding="utf-8"?>
<!-- Generator: Adobe Illustrator 18.1.0, SVG Export Plug-In . SVG Version: 6.00 Build 0)  -->
<!DOCTYPE svg PUBLIC "-//W3C//DTD SVG 1.1//EN" "http://www.w3.org/Graphics/SVG/1.1/DTD/svg11.dtd">
<svg version="1.1" id="Layer_1" xmlns="http://www.w3.org/2000/svg" xmlns:xlink="http://www.w3.org/1999/xlink" x="0px" y="0px"
	 viewBox="0 0 56.8 56.8" enable-background="new 0 0 56.8 56.8" xml:space="preserve">
<path d="M56.8,28.4c0,15.7-12.7,28.4-28.4,28.4S0,44.1,0,28.4S12.7,0,28.4,0S56.8,12.7,56.8,28.4z M49.8,36.9V18.4
	c0-1.1-0.9-1.9-1.9-1.9H9.5c-1.1,0-1.9,0.9-1.9,1.9v18.6c0,1.1,0.9,1.9,1.9,1.9h38.4C49,38.9,49.8,38,49.8,36.9z M29.2,29.9
	c-0.7,0.4-1.5,0.4-2.2,0L9.6,18.5c-0.4-0.2-0.2-0.9,0.2-0.9h37.3c0.5,0,0.6,0.6,0.2,0.9L29.2,29.9z"/>
</svg>
