<?xml version="1.0" encoding="utf-8"?>
<!-- Generator: Adobe Illustrator 18.1.0, SVG Export Plug-In . SVG Version: 6.00 Build 0)  -->
<!DOCTYPE svg PUBLIC "-//W3C//DTD SVG 1.1//EN" "http://www.w3.org/Graphics/SVG/1.1/DTD/svg11.dtd">
<svg version="1.1" id="Layer_1" xmlns="http://www.w3.org/2000/svg" xmlns:xlink="http://www.w3.org/1999/xlink" x="0px" y="0px"
	 viewBox="0 0 72 72" style="enable-background:new 0 0 72 72;" xml:space="preserve">
<path d="M72,35.7c0,19.7-16.1,35.7-36,35.7S0,55.5,0,35.7S16.1,0,36,0S72,16,72,35.7z M42.5,19.1h0.3c0.1-1.1,0.7-1.7,1.9-1.7H45V23
	c0,0.7-0.1,1.1-0.2,1.1c-0.1,0.1-0.4,0.1-0.8,0.2v0.3h4.4v-0.3c-0.4,0-0.7-0.1-0.8-0.3c-0.1-0.1-0.2-0.5-0.2-1.1v-5.6h0.3
	c0.7,0,1.2,0.1,1.5,0.5c0.3,0.3,0.4,0.7,0.4,1.2h0.3v-2.2h-7.5V19.1z M50.7,17.3c0.5,0,0.7,0.1,0.9,0.2c0.1,0.1,0.2,0.5,0.2,1.1V23
	c0,0.5-0.1,0.9-0.2,1.1c-0.1,0.2-0.4,0.3-0.9,0.3v0.3h2.7v-0.3c-0.4,0-0.7-0.1-0.9-0.2c-0.1-0.1-0.2-0.3-0.3-0.4c0-0.1,0-0.3,0-0.7
	v-4.9l3.1,6.5h0.3l3.1-6.5V23c0,0.5-0.1,0.9-0.2,1c-0.1,0.1-0.5,0.3-0.9,0.3v0.3h4.5v-0.3c-0.4-0.1-0.7-0.1-0.8-0.3
	c-0.1-0.1-0.2-0.5-0.2-0.9v-4.5c0-0.5,0.1-0.9,0.2-1.1c0.1-0.1,0.4-0.3,0.8-0.3v-0.3h-3.3l-2.2,4.8l-2.3-4.8h-3.5L50.7,17.3
	L50.7,17.3z M12.5,24.4C8.8,28.1,7,32.5,7,37.7c0,5.2,1.9,9.7,5.5,13.3s8.1,5.5,13.3,5.5s9.7-1.9,13.3-5.5c3.7-3.7,5.5-8.1,5.5-13.3
	c0-3.3-0.9-6.5-2.6-9.5c-1.7-3-4.1-5.3-7.1-6.9c-3-1.6-6.1-2.4-9.3-2.4C20.7,18.9,16.2,20.7,12.5,24.4z M33.9,23.3
	c2.5,1.5,4.6,3.5,6.1,6.1c1.5,2.6,2.3,5.3,2.3,8.3c0,4.5-1.6,8.5-4.9,11.7c-3.3,3.3-7.1,4.9-11.7,4.9s-8.4-1.6-11.7-4.9
	c-3.3-3.3-4.9-7.1-4.9-11.7c0-2.9,0.7-5.7,2.3-8.3s3.5-4.6,6.1-6.1c2.5-1.5,5.3-2.1,8.1-2.1C28.7,21.2,31.4,21.9,33.9,23.3z
	 M33.7,26.3c-0.1,0.9-0.5,1.3-1.2,1.3c-0.3,0-0.7-0.1-1.3-0.3c-1.9-0.7-3.7-1.1-5.3-1.1c-3.3,0-6.1,1.1-8.3,3.3
	c-2.3,2.2-3.3,4.9-3.3,8.3c0,3.5,1.1,6.1,3.3,8.1s4.8,2.9,7.9,2.9c3.5,0,6.3-1.1,8.5-3.4v-1.9c-2,2.5-4.3,3.7-6.9,3.7
	c-1.9,0-3.6-0.7-4.9-2.3c-1.3-1.5-1.9-4.1-1.9-7.8c0-2.9,0.6-5.2,1.7-6.9c1.1-1.7,2.9-2.7,5.1-2.7c1.6,0,3,0.5,4.3,1.5
	c1.3,1.1,2,2.5,2.3,4.3h1v-7.1H33.7L33.7,26.3z"/>
</svg>
