<?xml version="1.0" encoding="utf-8"?>
<!-- Generator: Adobe Illustrator 18.1.0, SVG Export Plug-In . SVG Version: 6.00 Build 0)  -->
<!DOCTYPE svg PUBLIC "-//W3C//DTD SVG 1.1//EN" "http://www.w3.org/Graphics/SVG/1.1/DTD/svg11.dtd">
<svg version="1.1" id="Layer_1" xmlns="http://www.w3.org/2000/svg" xmlns:xlink="http://www.w3.org/1999/xlink" x="0px" y="0px"
	 viewBox="0 0 72 72" style="enable-background:new 0 0 72 72;" xml:space="preserve">
<path d="M72,36c0,19.9-16.1,36-36,36S0,55.9,0,36S16.1,0,36,0S72,16.1,72,36z M35.6,20.9L25,10.3c-0.4-0.4-1.1-0.4-1.7,0L12.7,20.9
	c-0.8,0.8-0.3,1.9,0.8,1.9h6.5v24.3c0,0.6,0.5,1.1,1.1,1.1h6.2c0.6,0,1.1-0.5,1.1-1.1V22.9h6.5C35.9,22.9,36.4,21.7,35.6,20.9z
	 M53.9,51.5h-6.5V27.3c0-0.6-0.5-1.1-1.1-1.1H40c-0.6,0-1.1,0.5-1.1,1.1v24.3h-6.5c-1,0-1.5,1.3-0.8,1.9l10.7,10.7
	c0.4,0.4,1.1,0.4,1.7,0l10.7-10.7C55.4,52.7,54.9,51.5,53.9,51.5z"/>
</svg>
