<?xml version="1.0" encoding="utf-8"?>
<!-- Generator: Adobe Illustrator 18.1.0, SVG Export Plug-In . SVG Version: 6.00 Build 0)  -->
<!DOCTYPE svg PUBLIC "-//W3C//DTD SVG 1.1//EN" "http://www.w3.org/Graphics/SVG/1.1/DTD/svg11.dtd">
<svg version="1.1" id="Layer_1" xmlns="http://www.w3.org/2000/svg" xmlns:xlink="http://www.w3.org/1999/xlink" x="0px" y="0px"
	 viewBox="0 257.8 1237 1237" enable-background="new 0 257.8 1237 1237" xml:space="preserve">
<path d="M1237,876.3c0,341.9-276.6,618.5-618.5,618.5S0,1218.2,0,876.3s276.6-618.5,618.5-618.5S1237,534.4,1237,876.3z M816,441.6
	c-154.6,0-280,125.4-280,280c0,43,12,84.2,29.2,122L207.9,1158c-24.1,22.3-25.8,56.7-5.2,80.7l24.1,25.8
	c22.3,24.1,56.7,25.8,80.7,5.2l357.3-314.4c43,29.2,96.2,46.4,152.9,46.4c154.6,0,280-125.4,280-280S969,441.6,816,441.6z
	 M819.5,936.4c-120.3,0-218.2-96.2-218.2-214.8s97.9-214.8,218.2-214.8s218.2,96.2,218.2,214.8
	C1034.2,840.2,939.7,936.4,819.5,936.4z"/>
<g>
	<path fill="#FFFFFF" d="M816,721.7v56.7c0,8.6,1.7,15.5,5.2,20.6c3.4,3.4,10.3,5.2,20.6,5.2h5.2v17.2H731.9v-17.2h3.4
		c10.3,0,17.2-1.7,20.6-5.2c3.4-3.4,5.2-10.3,5.2-18.9V654.6c0-8.6-1.7-15.5-5.2-20.6c-3.4-3.4-10.3-5.2-20.6-5.2h-5.2v-17.2h177
		l1.7,56.7h-18.9c-1.7-8.6-5.2-17.2-10.3-22.3s-8.6-8.6-12-12c-5.2-1.7-12-1.7-18.9-1.7h-34.4v73.9h15.5c8.6,0,13.7-1.7,15.5-5.2
		c3.4-3.4,5.2-10.3,5.2-20.6h17.2v73.9h-17.2c-1.7-12-1.7-18.9-5.2-22.3c-3.4-3.4-8.6-5.2-17.2-5.2L816,721.7L816,721.7z"/>
</g>
</svg>
