<?xml version="1.0" encoding="utf-8"?>
<!-- Generator: Adobe Illustrator 18.1.0, SVG Export Plug-In . SVG Version: 6.00 Build 0)  -->
<!DOCTYPE svg PUBLIC "-//W3C//DTD SVG 1.1//EN" "http://www.w3.org/Graphics/SVG/1.1/DTD/svg11.dtd">
<svg version="1.1" id="Layer_1" xmlns="http://www.w3.org/2000/svg" xmlns:xlink="http://www.w3.org/1999/xlink" x="0px" y="0px"
	 viewBox="0.4 24.4 71.9 12.5" style="enable-background:new 0.4 24.4 71.9 12.5;" xml:space="preserve">
<g style="enable-background:new    ;">
	<path d="M3.6,25.3H2.9c-0.4,0-0.8,0-1,0.1c-0.2,0.1-0.4,0.3-0.5,0.6c-0.1,0.3-0.2,0.6-0.3,1H0.4v-2.5h9v2.5H8.6
		c-0.1-0.7-0.3-1.2-0.6-1.4c-0.3-0.2-0.7-0.4-1.2-0.4H6v6.3c0,0.4,0.1,0.7,0.2,0.9c0.1,0.2,0.4,0.2,0.9,0.2h0.2v0.7H2.4v-0.7h0.2
		c0.4,0,0.7-0.1,0.9-0.2c0.1-0.2,0.2-0.4,0.2-0.8V25.3z"/>
	<path d="M13.4,31.6l0.9-1.9c0.2-0.3,0.2-0.5,0.2-0.6c0-0.2-0.2-0.3-0.6-0.3v-0.7h2.2v0.7c-0.3,0-0.4,0.1-0.6,0.2s-0.4,0.6-0.7,1.4
		l-2.1,4.4c-0.4,0.9-0.7,1.4-1,1.7s-0.6,0.4-1,0.4c-0.3,0-0.5-0.1-0.7-0.3S9.7,36.2,9.7,36c0-0.4,0.3-0.7,0.9-0.9
		c0.6-0.1,0.9-0.3,1.1-0.4c0.2-0.2,0.4-0.5,0.6-0.9l-2.4-4l-0.1-0.2c-0.2-0.3-0.3-0.5-0.4-0.6c-0.1-0.1-0.2-0.1-0.5-0.1v-0.7h3.5
		v0.7c-0.3,0-0.5,0.1-0.5,0.3c0,0.1,0.1,0.2,0.2,0.5L13.4,31.6z"/>
</g>
<g style="enable-background:new    ;">
	<path d="M20.1,33v2.2c0,0.3,0.1,0.6,0.2,0.7S20.6,36,21,36h0.2v0.7h-4.1V36c0.4,0,0.6-0.1,0.7-0.2c0.1-0.1,0.2-0.3,0.2-0.7v-5.2
		c0-0.3-0.1-0.6-0.2-0.7c-0.1-0.1-0.4-0.2-0.7-0.2v-0.7l2.9-0.5c0.1,0.3,0.1,0.6,0.1,0.9c0.3-0.3,0.6-0.6,1-0.7
		c0.3-0.2,0.7-0.2,1.1-0.2c0.7,0,1.3,0.3,1.8,0.8c0.5,0.5,0.8,1.2,0.8,2.1c0,0.9-0.3,1.6-0.8,2.2c-0.5,0.6-1.2,0.8-1.9,0.8
		c-0.3,0-0.7-0.1-1-0.2C20.7,33.4,20.4,33.2,20.1,33z M20.1,32.2c0.2,0.2,0.4,0.3,0.6,0.4c0.2,0.1,0.4,0.1,0.6,0.1
		c0.4,0,0.7-0.2,0.9-0.5c0.2-0.3,0.3-0.8,0.3-1.4c0-0.7-0.1-1.2-0.3-1.5s-0.5-0.5-0.8-0.5c-0.3,0-0.5,0.1-0.7,0.3
		c-0.2,0.2-0.4,0.4-0.5,0.6V32.2z"/>
</g>
<g style="enable-background:new    ;">
	<path d="M27.6,30.7c0,0.7,0.1,1.3,0.4,1.6c0.2,0.4,0.6,0.5,1.1,0.5c0.5,0,1-0.3,1.4-0.8l0.6,0.4c-0.2,0.4-0.6,0.7-1.1,0.9
		c-0.5,0.2-1,0.4-1.6,0.4c-0.9,0-1.6-0.3-2.2-0.8c-0.6-0.5-0.9-1.2-0.9-2.1c0-0.9,0.3-1.6,0.9-2.1c0.6-0.5,1.3-0.8,2.2-0.8
		c0.8,0,1.5,0.2,2.1,0.7c0.5,0.5,0.8,1.2,0.8,2.2H27.6z M27.6,30.1h1.7c0-1-0.3-1.5-0.9-1.5c-0.3,0-0.5,0.1-0.6,0.4
		C27.6,29.2,27.6,29.6,27.6,30.1z"/>
</g>
<g style="enable-background:new    ;">
	<path d="M35.6,29.6v2.1c0,0.4,0.1,0.7,0.2,0.9c0.1,0.2,0.4,0.2,0.9,0.2h0.2v0.7H32v-0.7h0.2c0.4,0,0.7-0.1,0.9-0.2
		c0.1-0.2,0.2-0.4,0.2-0.8v-5.3c0-0.4-0.1-0.7-0.2-0.9s-0.4-0.2-0.9-0.2H32v-0.7l3.6,0l0.8,0c0.8,0,1.4,0,1.7,0.1
		c0.4,0.1,0.7,0.2,1.1,0.4s0.6,0.5,0.8,0.8c0.2,0.3,0.3,0.7,0.3,1.1c0,1.1-0.6,1.8-1.8,2.2c0.3,0.2,0.8,0.8,1.5,1.9
		c0.5,0.8,0.9,1.3,1.1,1.5c0.2,0.2,0.5,0.3,0.7,0.3v0.7h-2.8c-0.3-0.3-0.7-1.1-1.4-2.3c-0.3-0.6-0.6-1-0.7-1.2
		c-0.1-0.2-0.3-0.3-0.4-0.3S36.1,29.6,35.6,29.6z M35.6,28.7c0.7,0,1.2,0,1.5-0.1c0.3-0.1,0.5-0.3,0.6-0.5c0.2-0.3,0.2-0.6,0.2-1
		c0-0.6-0.1-1.1-0.4-1.3c-0.3-0.2-0.8-0.4-1.5-0.4c-0.1,0-0.2,0-0.4,0V28.7z"/>
</g>
<g style="enable-background:new    ;">
	<path d="M45.5,27.9v4c0,0.3,0.1,0.6,0.2,0.7c0.1,0.1,0.4,0.2,0.7,0.2v0.7h-4v-0.7h0.2c0.4,0,0.6-0.1,0.7-0.2
		c0.1-0.1,0.1-0.4,0.1-0.7v-2c0-0.3-0.1-0.6-0.2-0.7c-0.1-0.1-0.3-0.2-0.7-0.2h-0.2v-0.7L45.5,27.9z M43.3,25.6
		c0-0.3,0.1-0.6,0.3-0.8s0.5-0.4,0.8-0.4c0.3,0,0.6,0.1,0.8,0.3c0.2,0.2,0.3,0.5,0.3,0.8s-0.1,0.6-0.3,0.8s-0.5,0.3-0.8,0.3
		c-0.3,0-0.6-0.1-0.8-0.4S43.3,25.9,43.3,25.6z"/>
</g>
<g style="enable-background:new    ;">
	<path d="M48.5,31.6c-0.5-0.1-0.9-0.4-1.1-0.7c-0.3-0.3-0.4-0.7-0.4-1.1c0-0.6,0.3-1.1,0.8-1.4c0.5-0.3,1.2-0.5,2.1-0.5
		c0.5,0,0.9,0,1.2,0.1c0.4,0.1,0.6,0.2,0.9,0.4c0.5-0.4,0.9-0.6,1.2-0.6c0.4,0,0.7,0.2,0.7,0.6c0,0.4-0.2,0.5-0.5,0.5
		c-0.1,0-0.3-0.1-0.5-0.2c-0.1-0.1-0.1-0.1-0.2-0.1c-0.1,0-0.2,0.1-0.3,0.2c0.2,0.3,0.3,0.6,0.3,0.9c0,0.5-0.2,1-0.6,1.4
		c-0.4,0.4-1.2,0.6-2.3,0.6c-0.5,0-0.8,0.1-1,0.1c-0.2,0.1-0.3,0.2-0.3,0.4c0,0.2,0.3,0.3,0.9,0.3c0.1,0,0.4,0,0.9,0
		c0.2,0,0.3,0,0.5,0c1,0,1.7,0.1,2.1,0.4c0.4,0.3,0.6,0.8,0.6,1.4c0,0.7-0.3,1.3-0.9,1.7c-0.6,0.4-1.5,0.7-2.7,0.7
		c-1.1,0-1.9-0.1-2.3-0.4c-0.4-0.3-0.6-0.6-0.6-1c0-0.2,0.1-0.4,0.2-0.6c0.2-0.1,0.3-0.2,0.5-0.2c0.2,0,0.3,0.1,0.6,0.2
		c0,0.1-0.1,0.2-0.1,0.2c0,0.1,0,0.1,0,0.2c0,0.3,0.2,0.5,0.5,0.7c0.3,0.2,0.8,0.2,1.4,0.2c0.8,0,1.3-0.1,1.7-0.3s0.6-0.5,0.6-0.8
		c0-0.3-0.1-0.5-0.4-0.6s-0.9-0.1-1.8-0.1c-1,0-1.8-0.1-2.2-0.3s-0.7-0.6-0.7-1.1c0-0.4,0.1-0.7,0.3-0.9
		C47.7,31.8,48.1,31.7,48.5,31.6z M49,29.7c0,0.4,0.1,0.7,0.2,1c0.1,0.2,0.3,0.3,0.6,0.3c0.3,0,0.4-0.1,0.6-0.3
		c0.1-0.2,0.2-0.6,0.2-1c0-0.4-0.1-0.7-0.2-0.8s-0.3-0.3-0.6-0.3c-0.3,0-0.5,0.1-0.6,0.3S49,29.4,49,29.7z"/>
</g>
<g style="enable-background:new    ;">
	<path d="M56.9,29.8v2.1c0,0.3,0,0.5,0.1,0.7c0.1,0.1,0.3,0.2,0.5,0.2v0.7h-3.7v-0.7c0.4,0,0.6-0.1,0.7-0.2c0.1-0.1,0.2-0.4,0.2-0.7
		v-5.4c0-0.3-0.1-0.6-0.2-0.7c-0.1-0.1-0.3-0.2-0.7-0.2v-0.7l3-0.5v4.4c0.3-0.3,0.6-0.6,0.9-0.7c0.3-0.2,0.7-0.2,1.1-0.2
		c0.5,0,0.8,0.1,1.2,0.3s0.5,0.4,0.6,0.7c0.1,0.3,0.2,0.7,0.2,1.2v1.8c0,0.3,0.1,0.6,0.2,0.7c0.1,0.1,0.3,0.2,0.7,0.2v0.7H58v-0.7
		c0.2,0,0.3-0.1,0.5-0.2c0.1-0.1,0.2-0.3,0.2-0.7v-2.1c0-0.6-0.2-0.9-0.6-0.9c-0.2,0-0.4,0.1-0.6,0.2C57.3,29.3,57.1,29.6,56.9,29.8
		z"/>
</g>
<g style="enable-background:new    ;">
	<path d="M64.5,28.8v2.8c0,0.5,0,0.8,0.1,0.9c0.1,0.2,0.2,0.2,0.4,0.2c0.3,0,0.5-0.2,0.7-0.5l0.6,0.2c-0.3,0.8-1.1,1.3-2.1,1.3
		c-0.6,0-1.1-0.1-1.4-0.4c-0.3-0.3-0.5-0.7-0.5-1.3v-3.2h-0.8v-0.7l0.2,0c0.5,0,1-0.2,1.4-0.5c0.4-0.3,0.6-0.8,0.7-1.3h0.7v1.8h1.6
		v0.7H64.5z"/>
	<path d="M66.9,33.7l0-1.8h0.6c0.3,0.7,1,1.1,1.9,1.1c0.4,0,0.7-0.1,1-0.2c0.3-0.1,0.4-0.3,0.4-0.4c0-0.1-0.1-0.3-0.2-0.3
		c-0.1-0.1-0.5-0.2-0.9-0.3c-0.8-0.2-1.3-0.3-1.7-0.4c-0.4-0.1-0.7-0.4-0.9-0.6c-0.2-0.3-0.3-0.6-0.3-1c0-0.6,0.2-1,0.7-1.3
		c0.4-0.3,1-0.5,1.8-0.5c0.6,0,1.2,0.1,1.8,0.3c0.1-0.1,0.2-0.2,0.3-0.3h0.5l0.1,1.6h-0.5c-0.3-0.7-1-1-2-1c-0.3,0-0.6,0.1-0.8,0.2
		c-0.2,0.1-0.3,0.2-0.3,0.4c0,0.2,0.1,0.3,0.3,0.4c0.2,0.1,0.6,0.2,1.2,0.3c0.7,0.1,1.2,0.3,1.5,0.4c0.3,0.1,0.6,0.3,0.8,0.6
		c0.2,0.3,0.3,0.6,0.3,0.9c0,0.6-0.3,1-0.8,1.4s-1.1,0.5-1.9,0.5c-0.6,0-1.2-0.1-1.8-0.4c-0.1,0.1-0.2,0.2-0.3,0.4H66.9z"/>
</g>
</svg>
