<?xml version="1.0" encoding="utf-8"?>
<!-- Generator: Adobe Illustrator 18.1.0, SVG Export Plug-In . SVG Version: 6.00 Build 0)  -->
<!DOCTYPE svg PUBLIC "-//W3C//DTD SVG 1.1//EN" "http://www.w3.org/Graphics/SVG/1.1/DTD/svg11.dtd">
<svg version="1.1" id="Layer_1" xmlns="http://www.w3.org/2000/svg" xmlns:xlink="http://www.w3.org/1999/xlink" x="0px" y="0px"
	 viewBox="0 72 576 576" enable-background="new 0 72 576 576" xml:space="preserve">
<path fill="#35281E" d="M576,360c0,159.2-128.8,288-288,288S0,519.2,0,360S128.8,72,288,72S576,200.8,576,360z M504.8,446.4v-188
	c0-11.2-8.8-19.2-19.2-19.2H96c-11.2,0-19.2,8.8-19.2,19.2v188.8c0,11.2,8.8,19.2,19.2,19.2h389.6
	C496.8,466.4,504.8,457.6,504.8,446.4z M296,375.2c-7.2,4-15.2,4-22.4,0L97.6,260c-4-2.4-2.4-8.8,2.4-8.8h378.4
	c4.8,0,6.4,6.4,2.4,8.8L296,375.2z"/>
</svg>
