<?xml version="1.0" encoding="utf-8"?>
<!-- Generator: Adobe Illustrator 18.1.0, SVG Export Plug-In . SVG Version: 6.00 Build 0)  -->
<!DOCTYPE svg PUBLIC "-//W3C//DTD SVG 1.1//EN" "http://www.w3.org/Graphics/SVG/1.1/DTD/svg11.dtd">
<svg version="1.1" id="Layer_1" xmlns="http://www.w3.org/2000/svg" xmlns:xlink="http://www.w3.org/1999/xlink" x="0px" y="0px"
	 viewBox="0 0 56.8 56.8" enable-background="new 0 0 56.8 56.8" xml:space="preserve">
<path d="M56.8,28.4c0,15.7-12.7,28.4-28.4,28.4S0,44.1,0,28.4S12.7,0,28.4,0S56.8,12.7,56.8,28.4z M10.1,14.5l3.6,24.8
	c0,0,0.4,9.9,9,8.3L46.7,44c0,0-4.1-1.2-6.8-16.8l-2.3-16.9L10.1,14.5z M26.4,16c0.2,1.4-0.8,2.7-2.2,2.9c-1.4,0.2-2.7-0.8-2.9-2.2
	c-0.2-1.4,0.8-2.7,2.2-2.9C24.9,13.6,26.2,14.6,26.4,16z M16.4,29.1l-0.2-0.3c-0.2-0.2-0.2-0.6,0-0.8l3.2-4c0.2-0.3,0.6-0.3,0.9-0.1
	l3.7,2.6c0.3,0.2,0.7,0.1,0.9-0.1l2.4-3c0.2-0.3,0.6-0.3,0.9-0.1l3.6,2.5c0.3,0.2,0.7,0.1,0.9-0.1l1.8-2.3c0.2-0.3,0.6-0.3,0.9-0.1
	l0.4,0.3c0.3,0.2,0.4,0.6,0.1,0.9l-2.5,3.1c-0.2,0.3-0.6,0.3-0.9,0.1L28.8,25c-0.3-0.2-0.7-0.1-0.9,0.1l-2.5,3.1
	c-0.2,0.3-0.6,0.3-0.9,0.1l-3.4-2.7c-0.3-0.2-0.7-0.2-0.9,0.1l-2.7,3.4C17.2,29.4,16.7,29.4,16.4,29.1z M36.3,29.8l0.2,0.3
	c0.2,0.2,0.2,0.6,0,0.8l-3.2,4c-0.2,0.3-0.6,0.3-0.9,0.1l-3.7-2.6c-0.3-0.2-0.7-0.1-0.9,0.1l-2.4,3c-0.2,0.3-0.6,0.3-0.9,0.1
	L21,33.3c-0.3-0.2-0.7-0.1-0.9,0.1l-1.8,2.3c-0.2,0.3-0.6,0.3-0.9,0.1L17,35.6c-0.3-0.2-0.4-0.6-0.1-0.9l2.5-3.1
	c0.2-0.3,0.6-0.3,0.9-0.1l3.7,2.6c0.3,0.2,0.7,0.1,0.9-0.1l2.5-3.1c0.2-0.3,0.6-0.3,0.9-0.1l3.4,2.7c0.3,0.2,0.7,0.2,0.9-0.1
	l2.7-3.4C35.5,29.5,36,29.5,36.3,29.8z"/>
</svg>
