<?xml version="1.0" encoding="utf-8"?>
<!-- Generator: Adobe Illustrator 18.1.0, SVG Export Plug-In . SVG Version: 6.00 Build 0)  -->
<!DOCTYPE svg PUBLIC "-//W3C//DTD SVG 1.1//EN" "http://www.w3.org/Graphics/SVG/1.1/DTD/svg11.dtd">
<svg version="1.1" id="Layer_1" xmlns="http://www.w3.org/2000/svg" xmlns:xlink="http://www.w3.org/1999/xlink" x="0px" y="0px"
	 viewBox="0 401.8 576 576" enable-background="new 0 401.8 576 576" xml:space="preserve">
<path fill="#35281E" d="M576,689.8c0,159.2-128.8,288-288,288S0,849,0,689.8s128.8-288,288-288S576,530.6,576,689.8z M380,487.4
	c-72,0-130.4,58.4-130.4,130.4c0,20,5.6,39.2,13.6,56.8L96.8,821c-11.2,10.4-12,26.4-2.4,37.6l11.2,12c10.4,11.2,26.4,12,37.6,2.4
	l166.4-146.4c20,13.6,44.8,21.6,71.2,21.6c72,0,130.4-58.4,130.4-130.4C511.1,545.8,451.2,487.4,380,487.4z M381.6,717.8
	c-56,0-101.6-44.8-101.6-100s45.6-100,101.6-100s101.6,44.8,101.6,100C481.6,673,437.6,717.8,381.6,717.8z"/>
<g>
	<path fill="#FFFFFF" d="M380,617.8v26.4c0,4,0.8,7.2,2.4,9.6c1.6,1.6,4.8,2.4,9.6,2.4h2.4v8h-53.6v-8h1.6c4.8,0,8-0.8,9.6-2.4
		c1.6-1.6,2.4-4.8,2.4-8.8v-58.4c0-4-0.8-7.2-2.4-9.6c-1.6-1.6-4.8-2.4-9.6-2.4H340v-8h82.4l0.8,26.4h-8.8c-0.8-4-2.4-8-4.8-10.4
		c-2.4-2.4-4-4-5.6-5.6c-2.4-0.8-5.6-0.8-8.8-0.8h-16v34.4h7.2c4,0,6.4-0.8,7.2-2.4c1.6-1.6,2.4-4.8,2.4-9.6h8V633h-8
		c-0.8-5.6-0.8-8.8-2.4-10.4c-1.6-1.6-4-2.4-8-2.4L380,617.8L380,617.8z"/>
</g>
</svg>
