<?xml version="1.0" encoding="utf-8"?>
<!-- Generator: Adobe Illustrator 18.1.0, SVG Export Plug-In . SVG Version: 6.00 Build 0)  -->
<!DOCTYPE svg PUBLIC "-//W3C//DTD SVG 1.1//EN" "http://www.w3.org/Graphics/SVG/1.1/DTD/svg11.dtd">
<svg version="1.1" id="Layer_1" xmlns="http://www.w3.org/2000/svg" xmlns:xlink="http://www.w3.org/1999/xlink" x="0px" y="0px"
	 viewBox="0 72 576 576" enable-background="new 0 72 576 576" xml:space="preserve">
<path fill="#35281E" d="M576,360c0,159.2-128.8,288-288,288S0,519.2,0,360S128.8,72,288,72S576,200.8,576,360z M284.8,239.2
	L200,154.4c-3.2-3.2-8.8-3.2-13.6,0l-84.8,84.8c-6.4,6.4-2.4,15.2,6.4,15.2h52v194.4c0,4.8,4,8.8,8.8,8.8h49.6c4.8,0,8.8-4,8.8-8.8
	V255.2h52C287.2,255.2,291.2,245.6,284.8,239.2z M431.2,484h-52V290.4c0-4.8-4-8.8-8.8-8.8H320c-4.8,0-8.8,4-8.8,8.8v194.4h-52
	c-8,0-12,10.4-6.4,15.2l85.6,85.6c3.2,3.2,8.8,3.2,13.6,0l85.6-85.6C443.2,493.6,439.2,484,431.2,484z"/>
</svg>
