<?xml version="1.0" encoding="utf-8"?>
<!-- Generator: Adobe Illustrator 18.1.0, SVG Export Plug-In . SVG Version: 6.00 Build 0)  -->
<!DOCTYPE svg PUBLIC "-//W3C//DTD SVG 1.1//EN" "http://www.w3.org/Graphics/SVG/1.1/DTD/svg11.dtd">
<svg version="1.1" id="Layer_1" xmlns="http://www.w3.org/2000/svg" xmlns:xlink="http://www.w3.org/1999/xlink" x="0px" y="0px"
	 viewBox="0 0 72 72" enable-background="new 0 0 72 72" xml:space="preserve">
<ellipse fill="#3D2E1F" cx="36" cy="35.8" rx="36" ry="35.8"/>
<g enable-background="new    ">
	<path fill="#FFFFFF" d="M48.8,30.6c0,0.3-0.1,0.5-0.3,0.7s-0.5,0.3-0.8,0.3s-0.6-0.1-0.8-0.3c-0.2-0.2-0.3-0.4-0.4-0.7
		c0-0.3,0.1-0.5,0.3-0.7s0.5-0.3,0.8-0.3s0.6,0.1,0.8,0.3C48.7,30,48.8,30.3,48.8,30.6z"/>
	<path fill="#FFFFFF" d="M56.5,26.1c0,0.7,0,1.4-0.2,2s-0.4,1.2-0.8,1.7c-0.3,0.5-0.8,0.9-1.3,1.2c-0.5,0.3-1.1,0.4-1.8,0.5
		c-0.6,0-1.1-0.1-1.4-0.3c-0.3-0.2-0.5-0.4-0.5-0.7c0-0.2,0.1-0.3,0.2-0.4c0.1-0.1,0.3-0.2,0.5-0.2s0.3,0,0.4,0.1
		c0.1,0.1,0.2,0.2,0.4,0.4c0.3,0.3,0.6,0.4,0.9,0.4c0.4,0,0.8-0.2,1-0.6s0.4-0.8,0.5-1.2c0.1-0.4,0.1-0.9,0.2-1.4
		c-0.3,0.2-0.5,0.3-0.7,0.4c-0.3,0.1-0.6,0.2-0.9,0.2c-0.4,0-0.8-0.1-1.2-0.2c-0.4-0.2-0.8-0.5-1.1-0.9s-0.5-0.9-0.5-1.6
		c0-0.6,0.1-1.2,0.4-1.7s0.7-0.8,1.1-1.1c0.5-0.2,0.9-0.4,1.4-0.4c0.3,0,0.7,0,1.1,0.2c0.4,0.1,0.7,0.3,1.1,0.6
		c0.3,0.3,0.6,0.7,0.9,1.2C56.3,24.8,56.4,25.4,56.5,26.1z M54.6,25.2c0-0.6-0.1-1.2-0.3-1.6S53.7,23,53.2,23
		c-0.4,0-0.6,0.1-0.8,0.4c-0.2,0.2-0.3,0.5-0.3,0.8s0,0.8,0,1.4c0,0.3,0,0.6,0.1,0.9s0.2,0.5,0.4,0.8c0.2,0.2,0.5,0.3,0.8,0.3
		c0.5,0,0.9-0.3,1-0.7C54.5,26.4,54.6,25.8,54.6,25.2z"/>
	<path fill="#FFFFFF" d="M63.9,25.9c0,0.7,0,1.4-0.2,2s-0.4,1.2-0.8,1.7c-0.3,0.5-0.8,0.9-1.3,1.2c-0.5,0.3-1.1,0.4-1.8,0.5
		c-0.6,0-1.1-0.1-1.4-0.3c-0.3-0.2-0.5-0.4-0.5-0.7c0-0.2,0.1-0.3,0.2-0.4c0.1-0.1,0.3-0.2,0.5-0.2s0.3,0,0.4,0.1
		c0.1,0.1,0.2,0.2,0.4,0.4c0.3,0.3,0.6,0.4,0.9,0.4c0.4,0,0.8-0.2,1-0.6s0.4-0.8,0.5-1.2c0.1-0.4,0.1-0.9,0.2-1.4
		c-0.3,0.2-0.5,0.3-0.7,0.4C61,27.9,60.7,28,60.4,28c-0.4,0-0.8-0.1-1.2-0.2c-0.4-0.2-0.8-0.5-1.1-0.9s-0.5-0.9-0.5-1.6
		c0-0.6,0.1-1.2,0.4-1.7c0.3-0.5,0.7-0.8,1.1-1.1c0.5-0.2,0.9-0.4,1.4-0.4c0.3,0,0.7,0,1.1,0.2c0.4,0.1,0.7,0.3,1.1,0.6
		c0.3,0.3,0.6,0.7,0.9,1.2C63.7,24.5,63.8,25.1,63.9,25.9z M62,24.9c0-0.6-0.1-1.2-0.3-1.6s-0.6-0.6-1.1-0.6c-0.4,0-0.6,0.1-0.8,0.4
		c-0.2,0.2-0.3,0.5-0.3,0.8s0,0.8,0,1.4c0,0.3,0,0.6,0.1,0.9s0.2,0.5,0.4,0.8c0.2,0.2,0.5,0.3,0.8,0.3c0.5,0,0.9-0.3,1-0.7
		C61.9,26.1,62,25.5,62,24.9z"/>
</g>
<line fill="none" stroke="#FFFFFF" stroke-width="2" stroke-miterlimit="10" x1="46.4" y1="33.1" x2="65.6" y2="33.1"/>
<g>
	<path fill="#FFFFFF" d="M23.7,48.6h-12v-1.9h0.9c0.8,0,1.4-0.1,1.8-0.3c0.4-0.2,0.6-0.5,0.7-0.8c0.1-0.3,0.1-0.9,0.1-1.7V28.8
		c0-0.8-0.1-1.3-0.2-1.7c-0.1-0.4-0.4-0.6-0.9-0.8c-0.4-0.1-1.1-0.2-2.1-0.2h-0.7v-1.8c2.2-0.3,3.8-0.6,4.7-0.8
		c0.9-0.3,1.7-0.7,2.5-1.2h1.8v22c0,0.9,0.2,1.5,0.5,1.9s0.9,0.5,1.9,0.5h1.1v1.9H23.7z"/>
	<path fill="#FFFFFF" d="M43.6,33.9c0,2.1-0.3,4-0.8,5.9s-1.2,3.5-2.2,4.9S38.5,47.2,37,48c-1.4,0.8-3.1,1.2-4.9,1.2
		c-1.7,0-3-0.3-3.8-0.9c-0.8-0.6-1.2-1.3-1.2-2.1c0-0.5,0.2-0.9,0.5-1.2s0.8-0.6,1.3-0.6s0.8,0.1,1.1,0.4c0.3,0.2,0.6,0.6,1.1,1.2
		c0.7,0.9,1.5,1.4,2.4,1.4c1.2,0,2.1-0.5,2.7-1.6s1.1-2.2,1.3-3.5s0.4-2.6,0.6-4.1c-0.8,0.5-1.4,0.8-1.9,1c-0.8,0.3-1.5,0.5-2.3,0.5
		c-1,0-2.1-0.3-3.3-0.8c-1.2-0.6-2.1-1.5-2.9-2.7s-1.2-2.8-1.2-4.7c0-1.9,0.4-3.5,1.2-4.9c0.8-1.4,1.9-2.4,3.2-3.1s2.6-1,3.9-1
		c0.9,0,1.8,0.2,2.8,0.6s1.9,1,2.8,1.9c0.9,0.9,1.6,2.1,2.2,3.6S43.6,31.7,43.6,33.9z M38.6,30.9c0-1.9-0.2-3.5-0.7-4.8
		c-0.5-1.3-1.4-1.9-2.9-1.9c-1,0-1.7,0.3-2.2,1c-0.5,0.6-0.8,1.5-0.9,2.4c-0.1,1-0.2,2.3-0.2,4c0,1,0.1,1.9,0.2,2.8
		c0.1,0.8,0.4,1.6,0.9,2.3s1.2,1,2.2,1c1.5,0,2.4-0.7,2.9-2.1C38.4,34.3,38.6,32.7,38.6,30.9z"/>
</g>
</svg>
