<?xml version="1.0" encoding="utf-8"?>
<!-- Generator: Adobe Illustrator 18.1.0, SVG Export Plug-In . SVG Version: 6.00 Build 0)  -->
<!DOCTYPE svg PUBLIC "-//W3C//DTD SVG 1.1//EN" "http://www.w3.org/Graphics/SVG/1.1/DTD/svg11.dtd">
<svg version="1.1" id="Layer_1" xmlns="http://www.w3.org/2000/svg" xmlns:xlink="http://www.w3.org/1999/xlink" x="0px" y="0px"
	 viewBox="0 0 144 144" enable-background="new 0 0 144 144" xml:space="preserve">
<path d="M144,72c0,39.8-32.2,72-72,72S0,111.8,0,72S32.2,0,72,0S144,32.2,144,72z M95.1,21.3c-18,0-32.5,14.5-32.5,32.5
	c0,5.1,1.3,9.9,3.3,14.2l-41.8,36.8c-2.8,2.5-3,6.6-0.5,9.4l2.8,3c2.5,2.8,6.6,3,9.4,0.5l41.6-36.5c5.1,3.3,11.2,5.3,17.7,5.3
	c18,0,32.5-14.5,32.5-32.5S112.8,21.3,95.1,21.3z M95.3,79.1C81.4,79.1,70,67.9,70,54s11.4-25.1,25.4-25.1s25.4,11.2,25.4,25.1
	C120.4,67.9,109.3,79.1,95.3,79.1z"/>
<g>
	<path fill="#FFFFFF" d="M94.9,54v6.7c0,1.1,0.2,1.9,0.6,2.4c0.4,0.4,1.2,0.7,2.4,0.7h0.5v2H85.1v-2h0.4c1.2,0,2-0.2,2.4-0.7
		c0.4-0.5,0.6-1.2,0.6-2.3V46.1c0-1.1-0.2-1.9-0.6-2.4c-0.4-0.4-1.2-0.7-2.4-0.7H85v-2h20.6l0.2,6.5h-2.1c-0.3-1.1-0.7-2-1.2-2.7
		s-1-1.1-1.5-1.3c-0.5-0.2-1.3-0.3-2.3-0.3h-4v8.5h1.9c0.9,0,1.6-0.2,1.9-0.6c0.4-0.4,0.6-1.2,0.7-2.4h2v8.5h-2
		c-0.1-1.3-0.3-2.2-0.6-2.6s-1-0.6-2-0.6H94.9z"/>
</g>
</svg>
