<?xml version="1.0" encoding="utf-8"?>
<!-- Generator: Adobe Illustrator 18.1.0, SVG Export Plug-In . SVG Version: 6.00 Build 0)  -->
<!DOCTYPE svg PUBLIC "-//W3C//DTD SVG 1.1//EN" "http://www.w3.org/Graphics/SVG/1.1/DTD/svg11.dtd">
<svg version="1.1" id="Layer_1" xmlns="http://www.w3.org/2000/svg" xmlns:xlink="http://www.w3.org/1999/xlink" x="0px" y="0px"
	 viewBox="0 0 144 144" enable-background="new 0 0 144 144" xml:space="preserve">
<path d="M144,72c0,39.8-32.2,72-72,72S0,111.8,0,72S32.2,0,72,0S144,32.2,144,72z M103.3,33.4H42v5.1c3.2,0,5.5,0.3,7.1,1
	c1.6,0.7,2.6,1.6,3,2.8c0.4,1.2,0.7,2.9,0.7,5v47c0,3.2-0.7,5.5-2,6.8c-1.3,1.3-4.2,2-8.8,2v5.1h38.4v-5.1h-1.5
	c-4.5,0-7.3-0.7-8.5-2.2c-1.2-1.4-1.8-3.7-1.8-6.7V72h6.8c2.4,0,4.2,0.2,5.4,0.7c1.2,0.5,2,1.3,2.5,2.6c0.5,1.3,0.8,3.3,1,6.2h5.2
	V56.6h-5.1c-0.2,3.9-0.9,6.4-2.1,7.6c-1.2,1.1-3.4,1.7-6.7,1.7h-7V39.5h13.4c3.4,0,6,0.2,7.9,0.7c1.9,0.4,3.6,1.6,5.1,3.5
	c1.5,1.9,2.8,4.9,3.7,9.1h5.2L103.3,33.4z"/>
</svg>
