<?xml version="1.0" encoding="utf-8"?>
<!-- Generator: Adobe Illustrator 18.1.0, SVG Export Plug-In . SVG Version: 6.00 Build 0)  -->
<!DOCTYPE svg PUBLIC "-//W3C//DTD SVG 1.1//EN" "http://www.w3.org/Graphics/SVG/1.1/DTD/svg11.dtd">
<svg version="1.1" id="Layer_1" xmlns="http://www.w3.org/2000/svg" xmlns:xlink="http://www.w3.org/1999/xlink" x="0px" y="0px"
	 viewBox="108 0 396 396" style="enable-background:new 108 0 396 396;" xml:space="preserve">
<path d="M504,198c0,109.5-88.5,198-198,198s-198-88.5-198-198S196.6,0,306,0S504,88.6,504,198z M369.5,58.6
	c-49.5,0-89.4,39.9-89.4,89.4c0,14,3.6,27.2,9.1,39.1L174.3,288.2c-7.7,6.9-8.2,18.1-1.4,25.9l7.7,8.2c6.9,7.7,18.1,8.2,25.9,1.4
	l114.4-100.4c14,9.1,30.8,14.6,48.7,14.6c49.5,0,89.4-39.9,89.4-89.4S418.2,58.6,369.5,58.6z M370.1,217.5
	c-38.2,0-69.6-30.8-69.6-69s31.4-69,69.9-69s69.9,30.8,69.9,69C439.1,186.7,408.6,217.5,370.1,217.5z"/>
<g>
	<path style="fill:#FFFFFF;" d="M369,148.5v18.4c0,3,0.5,5.2,1.6,6.6c1.1,1.1,3.3,1.9,6.6,1.9h1.4v5.5H342v-5.5h1.1
		c3.3,0,5.5-0.6,6.6-1.9s1.6-3.3,1.6-6.3v-40.4c0-3-0.5-5.2-1.6-6.6c-1.1-1.1-3.3-1.9-6.6-1.9h-1.4v-5.5h56.6l0.5,17.9h-5.8
		c-0.8-3-1.9-5.5-3.3-7.4s-2.8-3-4.1-3.6c-1.4-0.6-3.6-0.8-6.3-0.8h-11v23.4h5.2c2.5,0,4.4-0.6,5.2-1.6c1.1-1.1,1.6-3.3,1.9-6.6h5.5
		v23.4h-5.5c-0.3-3.6-0.8-6.1-1.6-7.1s-2.8-1.6-5.5-1.6H369z"/>
</g>
</svg>
