<?xml version="1.0" encoding="utf-8"?>
<!-- Generator: Adobe Illustrator 18.1.0, SVG Export Plug-In . SVG Version: 6.00 Build 0)  -->
<!DOCTYPE svg PUBLIC "-//W3C//DTD SVG 1.1//EN" "http://www.w3.org/Graphics/SVG/1.1/DTD/svg11.dtd">
<svg version="1.1" id="Layer_1" xmlns="http://www.w3.org/2000/svg" xmlns:xlink="http://www.w3.org/1999/xlink" x="0px" y="0px"
	 viewBox="0 0 72 72" style="enable-background:new 0 0 72 72;" xml:space="preserve">
<ellipse cx="36" cy="35.8" rx="36" ry="35.8"/>
<g style="enable-background:new    ;">
	<path style="fill:#FFFFFF;" d="M37.7,34.4c0,2.8-0.3,5.5-1.1,8c-0.7,2.5-1.8,4.8-3.3,6.7c-1.4,1.9-3.2,3.5-5.4,4.6
		c-2.1,1.1-4.6,1.7-7.3,1.7c-2.6,0-4.5-0.4-5.8-1.3c-1.2-0.9-1.9-1.8-1.9-2.8c0-0.6,0.2-1.2,0.7-1.7s1.1-0.8,2-0.8
		c0.7,0,1.2,0.2,1.7,0.5c0.4,0.3,1,0.9,1.6,1.6c1,1.3,2.3,1.9,3.7,1.9c1.8,0,3.1-0.7,4.1-2.2c1-1.5,1.6-3.1,2-4.8
		c0.3-1.7,0.6-3.6,0.8-5.5c-1.1,0.6-2.1,1.1-2.8,1.3c-1.1,0.4-2.3,0.7-3.5,0.7c-1.5,0-3.2-0.4-4.9-1.1c-1.7-0.8-3.2-2-4.4-3.7
		c-1.2-1.7-1.8-3.8-1.8-6.4c0-2.6,0.6-4.8,1.8-6.7c1.2-1.9,2.8-3.3,4.7-4.2c1.9-1,3.9-1.4,5.9-1.4c1.3,0,2.8,0.2,4.3,0.8
		c1.5,0.5,2.9,1.4,4.3,2.5c1.4,1.2,2.5,2.8,3.3,4.9C37.3,29,37.7,31.5,37.7,34.4z M30.2,30.4c0-2.6-0.4-4.8-1.1-6.5
		s-2.2-2.6-4.3-2.5c-1.5,0-2.6,0.5-3.3,1.3c-0.7,0.9-1.2,2-1.3,3.3c-0.2,1.3-0.2,3.2-0.2,5.5c0,1.4,0.1,2.6,0.3,3.8
		c0.2,1.1,0.7,2.2,1.4,3.1c0.7,0.9,1.8,1.4,3.3,1.4c2.2,0,3.6-1,4.3-2.8C29.9,35.1,30.2,32.9,30.2,30.4z"/>
</g>
<g style="enable-background:new    ;">
	<path style="fill:#FFFFFF;" d="M41.8,27.5c0,0.3-0.1,0.5-0.3,0.7s-0.5,0.3-0.8,0.3c-0.3,0-0.6-0.1-0.8-0.3
		c-0.2-0.2-0.3-0.4-0.4-0.7c0-0.3,0.1-0.5,0.3-0.7c0.2-0.2,0.5-0.3,0.8-0.3c0.3,0,0.6,0.1,0.8,0.3C41.7,26.9,41.8,27.2,41.8,27.5z"
		/>
	<path style="fill:#FFFFFF;" d="M49.5,23c0,0.7,0,1.4-0.2,2c-0.2,0.6-0.4,1.2-0.8,1.7c-0.3,0.5-0.8,0.9-1.3,1.2
		c-0.5,0.3-1.1,0.4-1.8,0.5c-0.6,0-1.1-0.1-1.4-0.3c-0.3-0.2-0.5-0.4-0.5-0.7c0-0.2,0.1-0.3,0.2-0.4c0.1-0.1,0.3-0.2,0.5-0.2
		c0.2,0,0.3,0,0.4,0.1c0.1,0.1,0.2,0.2,0.4,0.4c0.3,0.3,0.6,0.4,0.9,0.4c0.4,0,0.8-0.2,1-0.6c0.2-0.4,0.4-0.8,0.5-1.2
		c0.1-0.4,0.1-0.9,0.2-1.4c-0.3,0.2-0.5,0.3-0.7,0.4c-0.3,0.1-0.6,0.2-0.9,0.2c-0.4,0-0.8-0.1-1.2-0.2c-0.4-0.2-0.8-0.5-1.1-0.9
		c-0.3-0.4-0.5-0.9-0.5-1.6c0-0.6,0.1-1.2,0.4-1.7s0.7-0.8,1.1-1.1c0.5-0.2,0.9-0.4,1.4-0.4c0.3,0,0.7,0,1.1,0.2
		c0.4,0.1,0.7,0.3,1.1,0.6c0.3,0.3,0.6,0.7,0.9,1.2C49.3,21.7,49.4,22.3,49.5,23z M47.6,22.1c0-0.6-0.1-1.2-0.3-1.6
		s-0.6-0.6-1.1-0.6c-0.4,0-0.6,0.1-0.8,0.4c-0.2,0.2-0.3,0.5-0.3,0.8c0,0.3,0,0.8,0,1.4c0,0.3,0,0.6,0.1,0.9
		c0.1,0.3,0.2,0.5,0.4,0.8c0.2,0.2,0.5,0.3,0.8,0.3c0.5,0,0.9-0.3,1-0.7C47.5,23.3,47.6,22.7,47.6,22.1z"/>
	<path style="fill:#FFFFFF;" d="M56.9,22.8c0,0.7,0,1.4-0.2,2c-0.2,0.6-0.4,1.2-0.8,1.7c-0.3,0.5-0.8,0.9-1.3,1.2
		c-0.5,0.3-1.1,0.4-1.8,0.5c-0.6,0-1.1-0.1-1.4-0.3c-0.3-0.2-0.5-0.4-0.5-0.7c0-0.2,0.1-0.3,0.2-0.4c0.1-0.1,0.3-0.2,0.5-0.2
		c0.2,0,0.3,0,0.4,0.1c0.1,0.1,0.2,0.2,0.4,0.4c0.3,0.3,0.6,0.4,0.9,0.4c0.4,0,0.8-0.2,1-0.6c0.2-0.4,0.4-0.8,0.5-1.2
		c0.1-0.4,0.1-0.9,0.2-1.4c-0.3,0.2-0.5,0.3-0.7,0.4c-0.3,0.1-0.6,0.2-0.9,0.2c-0.4,0-0.8-0.1-1.2-0.2c-0.4-0.2-0.8-0.5-1.1-0.9
		c-0.3-0.4-0.5-0.9-0.5-1.6c0-0.6,0.1-1.2,0.4-1.7c0.3-0.5,0.7-0.8,1.1-1.1c0.5-0.2,0.9-0.4,1.4-0.4c0.3,0,0.7,0,1.1,0.2
		c0.4,0.1,0.7,0.3,1.1,0.6c0.3,0.3,0.6,0.7,0.9,1.2C56.7,21.4,56.8,22,56.9,22.8z M55,21.8c0-0.6-0.1-1.2-0.3-1.6
		c-0.2-0.4-0.6-0.6-1.1-0.6c-0.4,0-0.6,0.1-0.8,0.4c-0.2,0.2-0.3,0.5-0.3,0.8c0,0.3,0,0.8,0,1.4c0,0.3,0,0.6,0.1,0.9
		c0.1,0.3,0.2,0.5,0.4,0.8c0.2,0.2,0.5,0.3,0.8,0.3c0.5,0,0.9-0.3,1-0.7C54.9,23,55,22.4,55,21.8z"/>
</g>
<line style="fill:none;stroke:#FFFFFF;stroke-width:2;stroke-miterlimit:10;" x1="39.4" y1="30" x2="58.6" y2="30"/>
</svg>
