<?xml version="1.0" encoding="utf-8"?>
<!-- Generator: Adobe Illustrator 18.1.0, SVG Export Plug-In . SVG Version: 6.00 Build 0)  -->
<!DOCTYPE svg PUBLIC "-//W3C//DTD SVG 1.1//EN" "http://www.w3.org/Graphics/SVG/1.1/DTD/svg11.dtd">
<svg version="1.1" id="Layer_1" xmlns="http://www.w3.org/2000/svg" xmlns:xlink="http://www.w3.org/1999/xlink" x="0px" y="0px"
	 viewBox="0 63.8 612 612" enable-background="new 0 63.8 612 612" xml:space="preserve">
<path fill="#35281E" d="M403.8,154.8c-76.5,0-138.5,62.1-138.5,138.5c0,21.2,6,41.7,14.5,60.4L102.9,509.2
	c-11.9,11.1-12.8,28.1-2.6,39.9l11.9,12.8c11.1,11.9,28.1,12.8,39.9,2.6l176.8-155.6c21.2,14.4,47.6,22.9,75.6,22.9
	c76.5,0,138.5-62.1,138.5-138.6C543,216.8,479.4,154.8,403.8,154.8z M612,369.8c0,169.2-136.8,306-306,306S0,539,0,369.8
	s136.9-306,306-306S612,200.6,612,369.8z M405.5,399.5c-59.5,0-108-47.6-108-106.2s48.5-106.2,108-106.2s108,47.6,108,106.2
	C511.7,352,465,399.5,405.5,399.5z"/>
<path fill="#E0DFDD" d="M403.8,293.3v28.1c0,4.2,0.8,7.6,2.5,10.2c1.7,1.7,5.1,2.6,10.2,2.6h2.5v8.5h-57v-8.5h1.7
	c5.1,0,8.5-0.9,10.2-2.6c1.7-1.7,2.5-5.1,2.5-9.3v-62.1c0-4.2-0.8-7.7-2.5-10.2c-1.7-1.7-5.1-2.6-10.2-2.6h-2.5v-8.5h87.5l0.9,28.1
	h-9.4c-0.8-4.2-2.5-8.5-5.1-11.1c-2.5-2.6-4.2-4.2-6-5.9c-2.5-0.8-6-0.8-9.3-0.8h-17v36.6h7.6c4.2,0,6.8-0.9,7.7-2.6
	c1.7-1.7,2.5-5.1,2.5-10.2h8.5v36.5h-8.5c-0.8-5.9-0.8-9.3-2.5-11.1c-1.7-1.7-4.2-2.6-8.5-2.6L403.8,293.3L403.8,293.3z"/>
</svg>
