<?xml version="1.0" encoding="utf-8"?>
<!-- Generator: Adobe Illustrator 18.1.0, SVG Export Plug-In . SVG Version: 6.00 Build 0)  -->
<!DOCTYPE svg PUBLIC "-//W3C//DTD SVG 1.1//EN" "http://www.w3.org/Graphics/SVG/1.1/DTD/svg11.dtd">
<svg version="1.1" id="Layer_1" xmlns="http://www.w3.org/2000/svg" xmlns:xlink="http://www.w3.org/1999/xlink" x="0px" y="0px"
	 viewBox="0 0 72 72" style="enable-background:new 0 0 72 72;" xml:space="preserve">
<path d="M72,35.8c0,19.8-16.1,35.8-36,35.8S0,55.5,0,35.8S16.1,0,36,0S72,16,72,35.8z M19.5,28.8h-11v0.9c0.6,0,1,0,1.2,0.2
	c0.3,0.1,0.4,0.3,0.6,0.5s0.1,0.5,0.1,0.9v8.5c0,0.5-0.1,1-0.4,1.2c-0.2,0.2-0.8,0.3-1.6,0.3v0.9h6.9v-0.9h-0.3
	c-0.8,0-1.3-0.2-1.6-0.4c-0.2-0.2-0.3-0.7-0.3-1.2v-4h1.2c0.4,0,0.8,0,0.9,0.2c0.2,0.1,0.4,0.2,0.4,0.5c0.1,0.2,0.1,0.6,0.2,1.1h1
	v-4.5h-0.9c0,0.7-0.1,1.2-0.4,1.3c-0.2,0.2-0.6,0.3-1.2,0.3h-1.2v-4.8h2.4c0.6,0,1.1,0,1.4,0.1c0.4,0.1,0.6,0.3,0.9,0.6
	s0.5,0.9,0.6,1.7h1L19.5,28.8z M35.2,41.3c-0.3,0-0.7-0.1-0.8-0.2c-0.2-0.1-0.5-0.3-0.8-0.7c-0.2-0.3-0.6-0.8-1-1.5
	c-0.7-1.1-1.2-1.9-1.6-2.3s-0.8-0.8-1.2-1c0.7-0.2,1.3-0.5,1.7-0.8c0.5-0.3,0.7-0.7,0.9-1.2c0.2-0.4,0.3-0.8,0.3-1.3
	c0-0.6-0.2-1.2-0.4-1.6c-0.3-0.5-0.6-0.9-1.1-1.1s-0.9-0.5-1.4-0.6c-0.4-0.1-0.8-0.1-1.4-0.2c-0.6,0-1.2-0.1-1.9-0.1
	c-0.5,0-0.8,0-1,0c-0.2,0-0.5,0-0.9,0s-0.6,0-0.8,0l-3.1,0.1v1c0.9,0,1.4,0.1,1.6,0.4s0.4,0.6,0.4,1.2v8.5c0,0.6-0.1,1-0.4,1.2
	s-0.8,0.3-1.6,0.3v0.9h6.8v-0.9c-0.5,0-1,0-1.3-0.2c-0.3-0.1-0.5-0.3-0.5-0.5c-0.1-0.2-0.1-0.5-0.1-0.9v-3.5h0.5
	c0.6,0,1.1,0,1.4,0.1s0.5,0.2,0.7,0.5s0.5,0.7,1,1.4l0.9,1.5c0.1,0.2,0.4,0.5,0.5,1c0.2,0.3,0.5,0.7,0.6,1c0.2,0.3,0.4,0.5,0.5,0.7
	h3.6L35.2,41.3L35.2,41.3z M28.6,34.7c-0.7,0.3-1.5,0.5-2.5,0.5h-0.6v-5.5c0.1,0,0.2,0,0.3,0c0.1,0,0.2,0,0.4,0c1,0,1.9,0.2,2.5,0.5
	s1,1,1,2.2C29.6,33.5,29.2,34.3,28.6,34.7z M47.2,37.8c-0.2,1-0.5,1.8-0.8,2.2c-0.4,0.5-0.8,0.8-1.2,0.9c-0.4,0.1-0.8,0.2-1.3,0.2
	h-1.1c-0.5,0-0.8,0-1.1-0.1s-0.5-0.2-0.5-0.3c-0.1-0.2-0.2-0.3-0.2-0.6c0-0.2,0-0.7,0-1.2v-3.2h1.4c0.5,0,0.8,0,1,0.1
	c0.2,0.1,0.4,0.2,0.5,0.5s0.2,0.6,0.2,1.1h0.9V33h-1c0,0.5-0.1,0.8-0.2,1.1c-0.1,0.2-0.2,0.4-0.5,0.5c-0.2,0.1-0.6,0.1-1,0.1h-1.3
	v-4.8h2.5c0.7,0,1.2,0,1.5,0.1c0.3,0.1,0.7,0.3,0.9,0.6c0.2,0.4,0.5,0.9,0.7,1.7h0.9l-0.2-3.5H36v0.9c0.6,0,1,0,1.3,0.2
	c0.3,0.1,0.5,0.3,0.5,0.5s0.1,0.5,0.1,0.9v8.5c0,0.6-0.1,1-0.3,1.2s-0.8,0.3-1.6,0.3v0.9h12l0.1-4.4L47.2,37.8L47.2,37.8z
	 M60.2,37.8c-0.2,1-0.5,1.8-0.8,2.2c-0.4,0.5-0.8,0.8-1.2,0.9c-0.4,0.1-0.8,0.2-1.3,0.2h-1.1c-0.5,0-0.8,0-1.1-0.1s-0.5-0.2-0.5-0.3
	c-0.1-0.2-0.2-0.3-0.2-0.6c0-0.2,0-0.7,0-1.2v-3.2h1.4c0.5,0,0.8,0,1,0.1s0.4,0.2,0.5,0.5c0.1,0.2,0.2,0.6,0.2,1.1h0.9V33h-1
	c0,0.5-0.1,0.8-0.2,1.1c-0.1,0.2-0.2,0.4-0.5,0.5c-0.2,0.1-0.6,0.1-1,0.1h-1.3v-4.8h2.5c0.7,0,1.2,0,1.5,0.1
	c0.3,0.1,0.7,0.3,0.9,0.6c0.2,0.4,0.5,0.9,0.7,1.7h0.9l-0.2-3.5H49v0.9c0.6,0,1,0,1.3,0.2c0.3,0.1,0.5,0.3,0.5,0.5s0.1,0.5,0.1,0.9
	v8.5c0,0.6-0.1,1-0.3,1.2s-0.8,0.3-1.6,0.3v0.9h12l0.1-4.4L60.2,37.8L60.2,37.8z"/>
<g>
	<rect x="8.3" y="24.5" style="fill:#FFFFFF;" width="52.8" height="1"/>
</g>
<g>
	<rect x="8.5" y="45.7" style="fill:#FFFFFF;" width="52.5" height="1"/>
</g>
</svg>
