<?xml version="1.0" encoding="utf-8"?>
<!-- Generator: Adobe Illustrator 18.1.0, SVG Export Plug-In . SVG Version: 6.00 Build 0)  -->
<!DOCTYPE svg PUBLIC "-//W3C//DTD SVG 1.1//EN" "http://www.w3.org/Graphics/SVG/1.1/DTD/svg11.dtd">
<svg version="1.1" id="Layer_1" xmlns="http://www.w3.org/2000/svg" xmlns:xlink="http://www.w3.org/1999/xlink" x="0px" y="0px"
	 viewBox="0 0 72 72" style="enable-background:new 0 0 72 72;" xml:space="preserve">
<path d="M72,36c0,19.9-16.1,36-36,36S0,55.9,0,36S16.1,0,36,0S72,16.1,72,36z M63.1,46.8V23.3c0-1.4-1.1-2.4-2.4-2.4H12
	c-1.4,0-2.4,1.1-2.4,2.4v23.6c0,1.4,1.1,2.4,2.4,2.4h48.7C62.1,49.3,63.1,48.2,63.1,46.8z M37,37.9c-0.9,0.5-1.9,0.5-2.8,0
	L12.2,23.5c-0.5-0.3-0.3-1.1,0.3-1.1h47.3c0.6,0,0.8,0.8,0.3,1.1L37,37.9z"/>
</svg>
