<?xml version="1.0" encoding="utf-8"?>
<!-- Generator: Adobe Illustrator 18.1.0, SVG Export Plug-In . SVG Version: 6.00 Build 0)  -->
<!DOCTYPE svg PUBLIC "-//W3C//DTD SVG 1.1//EN" "http://www.w3.org/Graphics/SVG/1.1/DTD/svg11.dtd">
<svg version="1.1" id="Layer_1" xmlns="http://www.w3.org/2000/svg" xmlns:xlink="http://www.w3.org/1999/xlink" x="0px" y="0px"
	 viewBox="0 0 72 72" style="enable-background:new 0 0 72 72;" xml:space="preserve">
<path d="M72,36c0,19.9-16.1,36-36,36S0,55.9,0,36S16.1,0,36,0S72,16.1,72,36z M65.7,26.1c-2,0.5-4.1,0.8-6.2,0.6
	c2.3-0.9,4.3-2.7,5.5-4.9c-2.2,0.9-4.6,1.4-7,1.4c-1.5-2.3-4.1-3.9-7-4.4c-5.7-0.9-11,2.9-11.9,8.6c-0.1,0.8-0.1,1.6-0.1,2.4
	c-8.5-1.8-15.3-7.1-19.4-14.2c-1.1,1.4-1.9,3-2.3,4.9c-0.6,3.5,0.8,7,3.2,9.3c-1.6-0.4-3.2-1-4.4-2v0.1c-0.8,4.9,2,9.8,6.6,11.4
	c-0.9,0.1-1.8,0.1-2.8-0.1c-0.6-0.1-1.3-0.3-1.9-0.5c0.6,4.3,3.9,7.9,8.4,8.7c-3.9,2.2-8.6,3-13.4,2.3c-0.9-0.1-1.6-0.4-2.4-0.5
	c4.1,3.7,9.3,6.2,15,7.2c18.9,3,31.8-10.9,34-24.5c0.1-0.5,0.1-0.9,0.1-1.4C62,29.5,64,28,65.7,26.1z"/>
</svg>
