<?xml version="1.0" encoding="utf-8"?>
<!-- Generator: Adobe Illustrator 18.1.0, SVG Export Plug-In . SVG Version: 6.00 Build 0)  -->
<!DOCTYPE svg PUBLIC "-//W3C//DTD SVG 1.1//EN" "http://www.w3.org/Graphics/SVG/1.1/DTD/svg11.dtd">
<svg version="1.1" id="Layer_1" xmlns="http://www.w3.org/2000/svg" xmlns:xlink="http://www.w3.org/1999/xlink" x="0px" y="0px"
	 viewBox="0 90 612 608.6" enable-background="new 0 90 612 608.6" xml:space="preserve">
<ellipse fill="#3D2E1F" cx="306" cy="394.3" rx="306" ry="304.3"/>
<g enable-background="new    ">
	<path fill="#DFDFDF" d="M320.5,382.4c0,23.8-2.5,46.8-9.4,68c-5.9,21.2-15.3,40.8-28,56.9c-11.9,16.2-27.2,29.8-45.9,39.1
		c-17.9,9.3-39.1,14.5-62.1,14.5c-22.1,0-38.2-3.4-49.3-11c-10.2-7.7-16.1-15.3-16.1-23.8c0-5.1,1.7-10.2,5.9-14.5
		c4.2-4.2,9.3-6.8,17-6.8c5.9,0,10.2,1.7,14.4,4.2c3.4,2.5,8.5,7.6,13.6,13.6c8.5,11,19.6,16.2,31.5,16.2c15.3,0,26.4-6,34.9-18.7
		c8.5-12.8,13.6-26.4,17-40.8c2.5-14.5,5.1-30.6,6.8-46.8c-9.4,5.1-17.9,9.4-23.8,11c-9.4,3.4-19.6,6-29.8,6
		c-12.8,0-27.2-3.4-41.6-9.3c-14.5-6.8-27.2-17-37.4-31.5s-15.3-32.3-15.3-54.4s5.1-40.8,15.3-56.9c10.2-16.1,23.8-28.1,40-35.7
		c16.1-8.5,33.1-11.9,50.1-11.9c11.1,0,23.8,1.7,36.6,6.8c12.7,4.2,24.6,11.9,36.5,21.2c11.9,10.2,21.2,23.8,28.1,41.6
		C317,336.5,320.5,357.8,320.5,382.4z M256.7,348.4c0-22.1-3.4-40.8-9.4-55.2c-6-14.4-18.7-22.1-36.6-21.2c-12.8,0-22.1,4.2-28,11
		c-6,7.6-10.2,17-11,28c-1.7,11.1-1.7,27.2-1.7,46.8c0,11.9,0.9,22.1,2.5,32.3c1.7,9.4,6,18.7,11.9,26.4s15.3,11.9,28,11.9
		c18.7,0,30.6-8.5,36.6-23.8C254.1,388.3,256.7,369.7,256.7,348.4z"/>
</g>
<g enable-background="new    ">
	<path fill="#DFDFDF" d="M355.3,323.8c0,2.5-0.8,4.2-2.5,6s-4.2,2.5-6.8,2.5s-5.1-0.9-6.8-2.5c-1.7-1.7-2.6-3.4-3.4-6
		c0-2.5,0.8-4.2,2.5-6s4.2-2.5,6.8-2.5c2.6,0,5.1,0.9,6.8,2.5C354.5,318.6,355.3,321.2,355.3,323.8z"/>
	<path fill="#DFDFDF" d="M420.8,285.5c0,6,0,11.9-1.7,17s-3.4,10.2-6.8,14.5c-2.5,4.2-6.8,7.6-11,10.2c-4.2,2.5-9.4,3.4-15.3,4.2
		c-5.1,0-9.4-0.9-11.9-2.6c-2.5-1.7-4.2-3.4-4.2-5.9c0-1.7,0.8-2.6,1.7-3.4c0.8-0.9,2.5-1.7,4.2-1.7s2.5,0,3.4,0.9s1.7,1.7,3.4,3.4
		c2.5,2.5,5.1,3.4,7.7,3.4c3.4,0,6.8-1.7,8.5-5.1c1.7-3.4,3.4-6.8,4.2-10.2c0.8-3.4,0.8-7.6,1.7-11.9c-2.5,1.7-4.2,2.5-5.9,3.4
		c-2.6,0.9-5.1,1.7-7.7,1.7c-3.4,0-6.8-0.9-10.2-1.7c-3.4-1.7-6.8-4.2-9.3-7.6s-4.2-7.6-4.2-13.6c0-5.1,0.8-10.2,3.4-14.5
		c2.6-4.2,6-6.8,9.4-9.4c4.2-1.7,7.6-3.4,11.9-3.4c2.6,0,6,0,9.4,1.7c3.4,0.9,6,2.5,9.3,5.1c2.5,2.5,5.1,6,7.7,10.2
		C419,274.5,419.9,279.5,420.8,285.5z M404.6,277.9c0-5.1-0.8-10.2-2.5-13.6s-5.1-5.1-9.3-5.1c-3.4,0-5.1,0.9-6.8,3.4
		c-1.7,1.7-2.6,4.2-2.6,6.8c0,2.6,0,6.8,0,11.9c0,2.6,0,5.1,0.9,7.7c0.8,2.5,1.7,4.2,3.4,6.8c1.7,1.7,4.2,2.5,6.8,2.5
		c4.2,0,7.6-2.5,8.5-6C403.8,288,404.6,283,404.6,277.9z"/>
	<path fill="#DFDFDF" d="M483.7,283.8c0,6,0,11.9-1.7,17s-3.4,10.2-6.8,14.5c-2.6,4.2-6.8,7.6-11.1,10.2c-4.2,2.5-9.3,3.4-15.3,4.2
		c-5.1,0-9.3-0.9-11.9-2.5c-2.6-1.7-4.2-3.4-4.2-6c0-1.7,0.8-2.5,1.7-3.4s2.6-1.7,4.2-1.7c1.7,0,2.6,0,3.4,0.9
		c0.8,0.9,1.7,1.7,3.4,3.4c2.5,2.5,5.1,3.4,7.6,3.4c3.4,0,6.8-1.7,8.5-5.1s3.4-6.8,4.2-10.2c0.9-3.4,0.9-7.6,1.7-11.9
		c-2.5,1.7-4.2,2.5-6,3.4c-2.5,0.9-5.1,1.7-7.6,1.7c-3.4,0-6.8-0.9-10.2-1.7c-3.4-1.7-6.8-4.2-9.4-7.6c-2.5-3.4-4.2-7.6-4.2-13.6
		c0-5.1,0.9-10.2,3.4-14.5c2.5-4.2,6-6.8,9.3-9.3c4.2-1.7,7.7-3.4,11.9-3.4c2.5,0,6,0,9.3,1.7c3.4,0.8,6,2.5,9.4,5.1
		c2.5,2.5,5.1,6,7.6,10.2C482,271.9,482.8,277,483.7,283.8z M467.5,275.3c0-5.1-0.8-10.2-2.5-13.6s-5.1-5.1-9.4-5.1
		c-3.4,0-5.1,0.9-6.8,3.4c-1.7,1.7-2.5,4.2-2.5,6.8c0,2.5,0,6.8,0,11.9c0,2.5,0,5.1,0.8,7.6c0.9,2.5,1.7,4.2,3.4,6.8
		c1.7,1.7,4.2,2.5,6.8,2.5c4.2,0,7.7-2.5,8.5-6C466.7,285.5,467.5,280.4,467.5,275.3z"/>
</g>
<line fill="#FFFFFF" stroke="#DFDFDF" stroke-width="8" stroke-miterlimit="10" x1="334.9" y1="345" x2="498.1" y2="345"/>
</svg>
