<?xml version="1.0" encoding="utf-8"?>
<!-- Generator: Adobe Illustrator 18.1.0, SVG Export Plug-In . SVG Version: 6.00 Build 0)  -->
<!DOCTYPE svg PUBLIC "-//W3C//DTD SVG 1.1//EN" "http://www.w3.org/Graphics/SVG/1.1/DTD/svg11.dtd">
<svg version="1.1" id="Layer_1" xmlns="http://www.w3.org/2000/svg" xmlns:xlink="http://www.w3.org/1999/xlink" x="0px" y="0px"
	 viewBox="0 0 144 144" enable-background="new 0 0 144 144" xml:space="preserve">
<path d="M144,71.5c0,39.5-32.2,71.5-72,71.5S0,111,0,71.5S32.2,0,72,0S144,32,144,71.5z M84.9,38.1h0.6c0.1-2.2,1.4-3.4,3.8-3.4H90
	v11.3c0,1.3-0.1,2.1-0.4,2.3s-0.8,0.3-1.6,0.4v0.7h8.8v-0.7c-0.8,0-1.3-0.2-1.6-0.5c-0.3-0.3-0.4-1-0.4-2.1V34.8h0.7
	c1.5,0,2.4,0.3,2.9,1c0.5,0.6,0.8,1.4,0.8,2.4h0.7v-4.4h-15V38.1z M101.4,34.5c0.9,0,1.4,0.1,1.7,0.4c0.3,0.3,0.4,1,0.4,2.1v9
	c0,1.1-0.1,1.8-0.4,2.1s-0.8,0.5-1.7,0.5v0.7h5.4v-0.7c-0.8,0-1.4-0.1-1.7-0.4c-0.3-0.2-0.4-0.5-0.5-0.8c0-0.3,0-0.7,0-1.4v-9.7
	l6.1,12.9h0.5l6.2-12.9v9.8c0,1-0.1,1.7-0.4,2c-0.3,0.3-0.9,0.5-1.8,0.5v0.7h8.9v-0.7c-0.8-0.1-1.3-0.2-1.6-0.6
	c-0.3-0.3-0.4-1-0.4-1.9v-9.1c0-1.1,0.1-1.8,0.4-2.1c0.2-0.3,0.8-0.5,1.6-0.5v-0.7h-6.7l-4.4,9.6l-4.5-9.6h-7.1V34.5z M25,48.8
	C17.6,56.1,13.9,65,13.9,75.5c0,10.4,3.7,19.3,11.1,26.7s16.3,11.1,26.7,11.1c10.4,0,19.4-3.7,26.7-11.1
	c7.4-7.4,11.1-16.3,11.1-26.7c0-6.7-1.7-13.1-5.2-19.1c-3.5-6-8.2-10.6-14.1-13.9c-6-3.2-12.1-4.8-18.5-4.8
	C41.3,37.7,32.4,41.4,25,48.8z M67.9,46.7c5.1,2.9,9.2,6.9,12.2,12.1c3,5.2,4.5,10.7,4.5,16.7c0,9.1-3.2,16.9-9.7,23.3
	c-6.5,6.5-14.2,9.7-23.3,9.7c-9.1,0-16.8-3.2-23.3-9.7c-6.5-6.5-9.7-14.2-9.7-23.3c0-5.9,1.5-11.5,4.5-16.7c3-5.2,7.1-9.2,12.3-12.1
	c5.1-2.9,10.6-4.3,16.2-4.3C57.3,42.4,62.8,43.9,67.9,46.7z M67.4,52.7c-0.2,1.8-1.1,2.7-2.4,2.7c-0.5,0-1.3-0.2-2.5-0.6
	c-3.9-1.4-7.4-2.1-10.5-2.1c-6.6,0-12.2,2.2-16.7,6.6c-4.5,4.4-6.7,9.9-6.7,16.6c0,6.9,2.2,12.2,6.5,16.1c4.3,3.9,9.6,5.8,15.8,5.8
	c7.1,0,12.7-2.3,17-6.8v-3.7c-4,4.9-8.6,7.4-13.8,7.4c-3.9,0-7.2-1.5-9.8-4.6c-2.6-3.1-3.9-8.3-3.9-15.6c0-5.8,1.2-10.4,3.5-13.9
	c2.3-3.5,5.8-5.3,10.3-5.3c3.2,0,6,1,8.5,3.1c2.5,2.1,4,4.9,4.6,8.5h2V52.7H67.4z"/>
</svg>
