<?xml version="1.0" encoding="utf-8"?>
<!-- Generator: Adobe Illustrator 18.1.0, SVG Export Plug-In . SVG Version: 6.00 Build 0)  -->
<!DOCTYPE svg PUBLIC "-//W3C//DTD SVG 1.1//EN" "http://www.w3.org/Graphics/SVG/1.1/DTD/svg11.dtd">
<svg version="1.1" id="Layer_1" xmlns="http://www.w3.org/2000/svg" xmlns:xlink="http://www.w3.org/1999/xlink" x="0px" y="0px"
	 viewBox="0 0 72 72" style="enable-background:new 0 0 72 72;" xml:space="preserve">
<path d="M72,35c0,19.9-16.1,36-36,36S0,54.9,0,35S16.1-1,36-1S72,15.1,72,35z M47.5,9.7c-9,0-16.3,7.3-16.3,16.3
	c0,2.5,0.7,4.9,1.7,7.1L12.1,51.4c-1.4,1.3-1.5,3.3-0.3,4.7l1.4,1.5c1.3,1.4,3.3,1.5,4.7,0.3l20.8-18.3c2.5,1.7,5.6,2.7,8.9,2.7
	c9,0,16.3-7.3,16.3-16.3S56.4,9.7,47.5,9.7z M47.7,38.5C40.7,38.5,35,32.9,35,26s5.7-12.5,12.7-12.5S60.4,19.1,60.4,26
	C60.2,32.9,54.7,38.5,47.7,38.5z"/>
<g>
	<path style="fill:#FFFFFF;" d="M47.5,26v3.3c0,0.5,0.1,0.9,0.3,1.2c0.2,0.2,0.6,0.3,1.2,0.3h0.3v1h-6.7v-1h0.2c0.6,0,1-0.1,1.2-0.3
		c0.2-0.2,0.3-0.6,0.3-1.1v-7.3c0-0.5-0.1-0.9-0.3-1.2c-0.2-0.2-0.6-0.3-1.2-0.3h-0.3v-1h10.3l0.1,3.3h-1.1c-0.1-0.5-0.3-1-0.6-1.3
		c-0.3-0.3-0.5-0.5-0.7-0.7c-0.3-0.1-0.7-0.1-1.1-0.1h-2v4.3h0.9c0.5,0,0.8-0.1,0.9-0.3c0.2-0.2,0.3-0.6,0.3-1.2h1v4.3h-1
		c-0.1-0.7-0.1-1.1-0.3-1.3s-0.5-0.3-1-0.3L47.5,26L47.5,26z"/>
</g>
</svg>
