<?xml version="1.0" encoding="utf-8"?>
<!-- Generator: Adobe Illustrator 18.1.0, SVG Export Plug-In . SVG Version: 6.00 Build 0)  -->
<!DOCTYPE svg PUBLIC "-//W3C//DTD SVG 1.1//EN" "http://www.w3.org/Graphics/SVG/1.1/DTD/svg11.dtd">
<svg version="1.1" id="Layer_1" xmlns="http://www.w3.org/2000/svg" xmlns:xlink="http://www.w3.org/1999/xlink" x="0px" y="0px"
	 viewBox="0 0 56.8 56.8" enable-background="new 0 0 56.8 56.8" xml:space="preserve">
<path d="M56.8,28.4c0,15.7-12.7,28.4-28.4,28.4S0,44.1,0,28.4S12.7,0,28.4,0S56.8,12.7,56.8,28.4z M36.4,22.6h2.9v-2h-2.9v-2h4.9v-2
	h-6.9v9.8h2V22.6z M37.5,8.4c-7.1,0-12.8,5.7-12.8,12.8c0,2,0.5,3.9,1.3,5.6L9.5,41.3c-1.1,1-1.2,2.6-0.2,3.7l1.1,1.2
	c1,1.1,2.6,1.2,3.7,0.2L30.5,32c2,1.3,4.4,2.1,7,2.1c7.1,0,12.8-5.7,12.8-12.8C50.3,14.2,44.5,8.4,37.5,8.4z M37.6,31.2
	c-5.5,0-10-4.4-10-9.9c0-5.5,4.5-9.9,10-9.9s10,4.4,10,9.9C47.5,26.8,43.1,31.2,37.6,31.2z"/>
</svg>
