<?xml version="1.0" encoding="utf-8"?>
<!-- Generator: Adobe Illustrator 18.1.0, SVG Export Plug-In . SVG Version: 6.00 Build 0)  -->
<!DOCTYPE svg PUBLIC "-//W3C//DTD SVG 1.1//EN" "http://www.w3.org/Graphics/SVG/1.1/DTD/svg11.dtd">
<svg version="1.1" id="Layer_1" xmlns="http://www.w3.org/2000/svg" xmlns:xlink="http://www.w3.org/1999/xlink" x="0px" y="0px"
	 viewBox="0 72 576 576" enable-background="new 0 72 576 576" xml:space="preserve">
<path fill="#35281E" d="M576,360c0,159.2-128.8,288-288,288S0,519.2,0,360S128.8,72,288,72S576,200.8,576,360z M525.6,280.8
	c-16,4-32.8,6.4-49.6,4.8c18.4-7.2,34.4-21.6,44-39.2c-17.6,7.2-36.8,11.2-56,11.2c-12-18.4-32.8-31.2-56-35.2
	c-45.6-7.2-88,23.2-95.2,68.8c-0.8,6.4-0.8,12.8-0.8,19.2c-68-14.4-122.4-56.8-155.2-113.6c-8.8,11.2-15.2,24-18.4,39.2
	c-4.8,28,6.4,56,25.6,74.4c-12.8-3.2-25.6-8-35.2-16v0.8c-6.4,39.2,16,78.4,52.8,91.2c-7.2,0.8-14.4,0.8-22.4-0.8
	c-4.8-0.8-10.4-2.4-15.2-4c4.8,34.4,31.2,63.2,67.2,69.6c-31.2,17.6-68.8,24-107.2,18.4c-7.2-0.8-12.8-3.2-19.2-4
	c32.8,29.6,74.4,49.6,120,57.6c151.2,24,254.4-87.2,272-196c0.8-4,0.8-7.2,0.8-11.2C496,308,512,296,525.6,280.8z"/>
</svg>
