<?xml version="1.0" encoding="utf-8"?>
<!-- Generator: Adobe Illustrator 18.1.0, SVG Export Plug-In . SVG Version: 6.00 Build 0)  -->
<!DOCTYPE svg PUBLIC "-//W3C//DTD SVG 1.1//EN" "http://www.w3.org/Graphics/SVG/1.1/DTD/svg11.dtd">
<svg version="1.1" id="Layer_1" xmlns="http://www.w3.org/2000/svg" xmlns:xlink="http://www.w3.org/1999/xlink" x="0px" y="0px"
	 viewBox="108 0 396 396" style="enable-background:new 108 0 396 396;" xml:space="preserve">
<path d="M504,198c0,109.5-88.5,198-198,198s-198-88.5-198-198S196.5,0,306,0S504,88.5,504,198z M303.9,115l-58.6-58.6
	c-2.1-2.1-6.3-2.1-9.1,0L177.7,115c-4.2,4.2-1.4,10.5,4.2,10.5h35.6v133.9c0,3.5,2.8,6.3,6.3,6.3h34.2c3.5,0,6.3-2.8,6.3-6.3V126.2
	h35.6C305.3,126.2,308.1,119.2,303.9,115z M404.3,283.1h-35.6V149.9c0-3.5-2.8-6.3-6.3-6.3h-34.2c-3.5,0-6.3,2.8-6.3,6.3v133.9
	h-35.6c-5.6,0-8.4,7-4.2,10.5l58.6,58.6c2.1,2.1,6.3,2.1,9.1,0l58.6-58.6C412.7,290,409.9,283.1,404.3,283.1z"/>
</svg>
