<?xml version="1.0" encoding="utf-8"?>
<!-- Generator: Adobe Illustrator 18.1.0, SVG Export Plug-In . SVG Version: 6.00 Build 0)  -->
<!DOCTYPE svg PUBLIC "-//W3C//DTD SVG 1.1//EN" "http://www.w3.org/Graphics/SVG/1.1/DTD/svg11.dtd">
<svg version="1.1" id="Layer_1" xmlns="http://www.w3.org/2000/svg" xmlns:xlink="http://www.w3.org/1999/xlink" x="0px" y="0px"
	 viewBox="0 0 56.8 56.8" enable-background="new 0 0 56.8 56.8" xml:space="preserve">
<path d="M56.8,28.4c0,15.7-12.7,28.4-28.4,28.4S0,44.1,0,28.4S12.7,0,28.4,0S56.8,12.7,56.8,28.4z M28.1,16.5l-8.4-8.4
	c-0.3-0.3-0.9-0.3-1.3,0l-8.4,8.4c-0.6,0.6-0.2,1.5,0.6,1.5h5.1v19.2c0,0.5,0.4,0.9,0.9,0.9h4.9c0.5,0,0.9-0.4,0.9-0.9V18.1h5.1
	C28.3,18.1,28.7,17.1,28.1,16.5z M42.5,40.6h-5.1V21.5c0-0.5-0.4-0.9-0.9-0.9h-4.9c-0.5,0-0.9,0.4-0.9,0.9v19.2h-5.1
	c-0.8,0-1.2,1-0.6,1.5l8.4,8.4c0.3,0.3,0.9,0.3,1.3,0l8.4-8.4C43.7,41.6,43.3,40.6,42.5,40.6z"/>
</svg>
