<?xml version="1.0" encoding="utf-8"?>
<!-- Generator: Adobe Illustrator 18.1.0, SVG Export Plug-In . SVG Version: 6.00 Build 0)  -->
<!DOCTYPE svg PUBLIC "-//W3C//DTD SVG 1.1//EN" "http://www.w3.org/Graphics/SVG/1.1/DTD/svg11.dtd">
<svg version="1.1" id="Layer_1" xmlns="http://www.w3.org/2000/svg" xmlns:xlink="http://www.w3.org/1999/xlink" x="0px" y="0px"
	 viewBox="0 0 56.8 56.8" enable-background="new 0 0 56.8 56.8" xml:space="preserve">
<path d="M56.8,28.4c0,15.7-12.7,28.4-28.4,28.4S0,44.1,0,28.4S12.7,0,28.4,0S56.8,12.7,56.8,28.4z M31.7,24.2
	c-0.7-1.7-1.7-3.1-2.9-4.3s-2.7-2.2-4.3-2.9s-3.4-1.1-5.3-1.1s-3.6,0.4-5.3,1.1s-3.1,1.7-4.3,2.9s-2.2,2.7-2.9,4.3s-1.1,3.4-1.1,5.3
	s0.4,3.6,1.1,5.3s1.7,3.1,2.9,4.3s2.7,2.2,4.3,2.9s3.4,1.1,5.3,1.1s3.6-0.4,5.3-1.1s3.1-1.7,4.3-2.9s2.2-2.7,2.9-4.3
	c0.7-1.7,1.1-3.4,1.1-5.3S32.4,25.8,31.7,24.2z M28.6,33.5c-0.5,1.2-1.3,2.3-2.2,3.2s-2,1.7-3.3,2.2s-2.6,0.8-4,0.8
	c-1.4,0-2.8-0.3-4-0.8s-2.3-1.3-3.3-2.2s-1.7-2-2.2-3.2s-0.8-2.6-0.8-4s0.3-2.7,0.8-4s1.3-2.3,2.2-3.3s2-1.7,3.3-2.2s2.6-0.8,4-0.8
	c1.4,0,2.7,0.3,4,0.8s2.3,1.3,3.3,2.2s1.7,2,2.2,3.3s0.8,2.6,0.8,4S29.1,32.3,28.6,33.5z M22.9,33.2c-0.5,0.5-1,0.9-1.7,1.2
	s-1.3,0.4-2,0.4c-0.7,0-1.4-0.1-2-0.4s-1.2-0.6-1.7-1.1s-0.8-1-1.1-1.6c-0.3-0.6-0.4-1.3-0.4-2s0.1-1.4,0.4-2s0.6-1.2,1.1-1.6
	s1-0.8,1.7-1.1s1.3-0.4,2-0.4c0.7,0,1.4,0.1,2,0.4s1.2,0.7,1.7,1.2l1.7-2.8c-0.8-0.6-1.6-1.1-2.5-1.5s-1.9-0.5-2.9-0.5
	c-1.2,0-2.2,0.2-3.3,0.7s-1.9,1-2.7,1.8s-1.4,1.6-1.8,2.7s-0.7,2.1-0.7,3.2s0.2,2.2,0.7,3.2c0.4,1,1,1.9,1.8,2.7s1.6,1.4,2.7,1.8
	S18,38,19.2,38c1,0,1.9-0.2,2.9-0.5s1.8-0.8,2.5-1.5L22.9,33.2z M37.4,22.9h2.7V21h-7.3v1.8h2.7v7.3h1.8V22.9z M50.3,23.6
	c0-0.4-0.1-0.7-0.2-1.1s-0.3-0.6-0.6-0.9s-0.5-0.4-0.9-0.6s-0.7-0.2-1.1-0.2c-0.3,0-0.6,0.1-0.9,0.2s-0.6,0.3-0.9,0.5
	c-0.3-0.2-0.5-0.4-0.9-0.5s-0.6-0.2-1-0.2c-0.4,0-0.7,0.1-1.1,0.2s-0.6,0.3-0.9,0.6s-0.4,0.5-0.6,0.9s-0.2,0.7-0.2,1.1v6.5H43v-6.5
	c0-0.3,0.1-0.5,0.3-0.6s0.4-0.3,0.6-0.3c0.3,0,0.5,0.1,0.7,0.3s0.3,0.4,0.3,0.6v6.5h1.8v-6.5c0-0.3,0.1-0.5,0.3-0.6s0.4-0.3,0.6-0.3
	c0.3,0,0.5,0.1,0.7,0.3s0.3,0.4,0.3,0.6v6.5h1.8V23.6z"/>
</svg>
