<?xml version="1.0" encoding="utf-8"?>
<!-- Generator: Adobe Illustrator 18.1.0, SVG Export Plug-In . SVG Version: 6.00 Build 0)  -->
<!DOCTYPE svg PUBLIC "-//W3C//DTD SVG 1.1//EN" "http://www.w3.org/Graphics/SVG/1.1/DTD/svg11.dtd">
<svg version="1.1" id="Layer_1" xmlns="http://www.w3.org/2000/svg" xmlns:xlink="http://www.w3.org/1999/xlink" x="0px" y="0px"
	 viewBox="0 0 72 72" style="enable-background:new 0 0 72 72;" xml:space="preserve">
<path d="M72,36c0,19.9-16.1,36-36,36S0,55.9,0,36S16.1,0,36,0S72,16.1,72,36z M51.7,16.7H21v2.5c1.6,0,2.8,0.1,3.5,0.5
	s1.3,0.8,1.5,1.4s0.4,1.5,0.4,2.5v23.5c0,1.6-0.4,2.8-1,3.4s-2.1,1-4.4,1v2.5h19.2v-2.5h-0.8c-2.2,0-3.7-0.3-4.2-1.1
	c-0.6-0.7-0.9-1.8-0.9-3.3V36h3.4c1.2,0,2.1,0.1,2.7,0.3c0.6,0.2,1,0.7,1.2,1.3c0.2,0.7,0.4,1.7,0.5,3.1h2.6V28.3h-2.5
	c-0.1,2-0.5,3.2-1,3.8c-0.6,0.5-1.7,0.8-3.3,0.8h-3.5V19.8H41c1.7,0,3,0.1,4,0.4c1,0.2,1.8,0.8,2.5,1.8s1.4,2.5,1.8,4.6H52
	L51.7,16.7z"/>
</svg>
