<?xml version="1.0" encoding="utf-8"?>
<!-- Generator: Adobe Illustrator 18.1.0, SVG Export Plug-In . SVG Version: 6.00 Build 0)  -->
<!DOCTYPE svg PUBLIC "-//W3C//DTD SVG 1.1//EN" "http://www.w3.org/Graphics/SVG/1.1/DTD/svg11.dtd">
<svg version="1.1" id="Layer_1" xmlns="http://www.w3.org/2000/svg" xmlns:xlink="http://www.w3.org/1999/xlink" x="0px" y="0px"
	 viewBox="0 0 144 144" enable-background="new 0 0 144 144" xml:space="preserve">
<path d="M144,71.5c0,39.5-32.2,71.5-72,71.5S0,111,0,71.5S32.2,0,72,0S144,32,144,71.5z M39,57.6H17v1.8c1.1,0,2,0.1,2.5,0.4
	c0.6,0.2,0.9,0.6,1.1,1c0.2,0.4,0.2,1,0.2,1.8v16.9c0,1.1-0.2,2-0.7,2.4c-0.5,0.5-1.5,0.7-3.2,0.7v1.8h13.8v-1.8h-0.6
	c-1.6,0-2.6-0.3-3.1-0.8c-0.4-0.5-0.6-1.3-0.6-2.4v-8h2.4c0.9,0,1.5,0.1,1.9,0.3c0.4,0.2,0.7,0.5,0.9,0.9c0.2,0.4,0.3,1.2,0.4,2.2
	H34v-8.9h-1.8c-0.1,1.4-0.3,2.3-0.8,2.7c-0.4,0.4-1.2,0.6-2.4,0.6h-2.5v-9.5h4.8c1.2,0,2.2,0.1,2.8,0.2c0.7,0.2,1.3,0.6,1.8,1.3
	s1,1.8,1.3,3.3h1.9L39,57.6z M70.4,82.6c-0.7-0.1-1.3-0.2-1.7-0.4c-0.5-0.2-1-0.7-1.5-1.3c-0.5-0.7-1.2-1.6-2.1-2.9
	c-1.4-2.2-2.5-3.8-3.2-4.6s-1.5-1.5-2.5-2.1c1.4-0.4,2.6-0.9,3.4-1.6c0.9-0.7,1.5-1.4,1.9-2.3c0.4-0.8,0.6-1.7,0.6-2.6
	c0-1.3-0.3-2.4-0.8-3.3c-0.6-1-1.3-1.7-2.2-2.3c-0.9-0.6-1.8-1-2.8-1.2c-0.7-0.2-1.6-0.3-2.8-0.5c-1.2-0.1-2.4-0.2-3.7-0.2
	c-1,0-1.6,0-2,0c-0.5,0-1.1,0-1.7,0s-1.2,0-1.6,0.1l-6.2,0.2v1.9c1.7,0,2.7,0.2,3.2,0.7c0.5,0.5,0.7,1.3,0.7,2.4v17
	c0,1.2-0.2,2-0.7,2.5c-0.5,0.5-1.5,0.7-3.2,0.7v1.8h13.5v-1.8c-1.1,0-2-0.1-2.6-0.4c-0.6-0.2-1-0.6-1.1-1c-0.2-0.4-0.2-1-0.2-1.8v-7
	h1c1.3,0,2.2,0.1,2.7,0.2s1,0.5,1.4,1s1,1.4,1.9,2.8l1.8,3c0.3,0.5,0.7,1.1,1.1,1.9c0.5,0.7,0.9,1.4,1.3,2c0.4,0.6,0.7,1,1,1.3h7.2
	V82.6z M57.2,69.3c-1.4,0.6-3,1-5,1h-1.2V59.4c0.2,0,0.4,0,0.6,0c0.2,0,0.4,0,0.7,0c2.1,0,3.8,0.4,5.1,1.1s2,2.1,2,4.3
	C59.2,67.1,58.5,68.6,57.2,69.3z M94.4,75.6c-0.3,2-0.9,3.5-1.7,4.5c-0.8,1-1.6,1.6-2.4,1.8c-0.8,0.2-1.7,0.3-2.6,0.3h-2.2
	c-1,0-1.7-0.1-2.2-0.2c-0.5-0.1-0.9-0.4-1.1-0.7c-0.2-0.3-0.4-0.7-0.4-1.2c-0.1-0.5-0.1-1.3-0.1-2.3v-6.3h2.8c0.9,0,1.6,0.1,2.1,0.2
	c0.5,0.2,0.8,0.5,1,0.9s0.3,1.2,0.4,2.2h1.8v-8.9h-1.9c-0.1,1-0.2,1.7-0.4,2.2c-0.2,0.5-0.5,0.8-1,0.9c-0.5,0.2-1.2,0.2-2.1,0.2
	h-2.7v-9.5h5c1.3,0,2.3,0.1,3,0.2c0.7,0.2,1.3,0.6,1.8,1.2c0.5,0.7,1,1.8,1.4,3.3h1.8l-0.4-7H72.1v1.8c1.2,0,2,0.1,2.6,0.4
	c0.6,0.2,0.9,0.6,1.1,1c0.2,0.4,0.2,1,0.2,1.8v16.9c0,1.2-0.2,2-0.7,2.5s-1.5,0.7-3.2,0.7v1.8h23.9l0.2-8.8H94.4z M120.4,75.6
	c-0.3,2-0.9,3.5-1.7,4.5c-0.8,1-1.6,1.6-2.4,1.8c-0.8,0.2-1.7,0.3-2.6,0.3h-2.2c-1,0-1.7-0.1-2.2-0.2c-0.5-0.1-0.9-0.4-1.1-0.7
	c-0.2-0.3-0.4-0.7-0.4-1.2c-0.1-0.5-0.1-1.3-0.1-2.3v-6.3h2.8c0.9,0,1.6,0.1,2.1,0.2s0.8,0.5,1,0.9c0.2,0.5,0.3,1.2,0.4,2.2h1.8
	v-8.9h-1.9c-0.1,1-0.2,1.7-0.4,2.2c-0.2,0.5-0.5,0.8-1,0.9c-0.5,0.2-1.2,0.2-2.1,0.2h-2.7v-9.5h5c1.3,0,2.3,0.1,3,0.2
	c0.7,0.2,1.3,0.6,1.8,1.2c0.5,0.7,1,1.8,1.4,3.3h1.8l-0.4-7H98.1v1.8c1.2,0,2,0.1,2.6,0.4c0.6,0.2,0.9,0.6,1.1,1
	c0.2,0.4,0.2,1,0.2,1.8v16.9c0,1.2-0.2,2-0.7,2.5s-1.5,0.7-3.2,0.7v1.8h23.9l0.2-8.8H120.4z"/>
<g>
	<rect x="16.7" y="49" fill="#FFFFFF" width="105.7" height="2"/>
</g>
<g>
	<rect x="17" y="91.3" fill="#FFFFFF" width="105" height="2"/>
</g>
</svg>
