<?xml version="1.0" encoding="utf-8"?>
<!-- Generator: Adobe Illustrator 18.1.0, SVG Export Plug-In . SVG Version: 6.00 Build 0)  -->
<!DOCTYPE svg PUBLIC "-//W3C//DTD SVG 1.1//EN" "http://www.w3.org/Graphics/SVG/1.1/DTD/svg11.dtd">
<svg version="1.1" id="Layer_1" xmlns="http://www.w3.org/2000/svg" xmlns:xlink="http://www.w3.org/1999/xlink" x="0px" y="0px"
	 viewBox="108 0 396 396" style="enable-background:new 108 0 396 396;" xml:space="preserve">
<path d="M504,198c0,109.5-88.5,198-198,198s-198-88.5-198-198S196.5,0,306,0S504,88.5,504,198z M178.4,101.1L203.5,274
	c0,0,2.8,69,62.7,57.9l167.3-25.1c0,0-28.6-8.4-47.4-117.1l-16-117.8L178.4,101.1z M292.1,111.5c1.4,9.8-5.6,18.8-15.3,20.2
	c-9.8,1.4-18.8-5.6-20.2-15.3c-1.4-9.8,5.6-18.8,15.3-20.2C281.6,94.8,290.7,101.8,292.1,111.5z M222.3,202.9l-1.4-2.1
	c-1.4-1.4-1.4-4.2,0-5.6l22.3-27.9c1.4-2.1,4.2-2.1,6.3-0.7l25.8,18.1c2.1,1.4,4.9,0.7,6.3-0.7l16.7-20.9c1.4-2.1,4.2-2.1,6.3-0.7
	l25.1,17.4c2.1,1.4,4.9,0.7,6.3-0.7l12.5-16c1.4-2.1,4.2-2.1,6.3-0.7l2.8,2.1c2.1,1.4,2.8,4.2,0.7,6.3l-17.4,21.6
	c-1.4,2.1-4.2,2.1-6.3,0.7l-25.8-18.8c-2.1-1.4-4.9-0.7-6.3,0.7l-17.4,21.6c-1.4,2.1-4.2,2.1-6.3,0.7l-23.7-18.8
	c-2.1-1.4-4.9-1.4-6.3,0.7L230,202.9C227.9,205,224.4,205,222.3,202.9z M361.1,207.8l1.4,2.1c1.4,1.4,1.4,4.2,0,5.6l-22.3,27.9
	c-1.4,2.1-4.2,2.1-6.3,0.7l-25.8-18.1c-2.1-1.4-4.9-0.7-6.3,0.7l-16.7,20.9c-1.4,2.1-4.2,2.1-6.3,0.7l-24.4-16
	c-2.1-1.4-4.9-0.7-6.3,0.7l-12.5,16c-1.4,2.1-4.2,2.1-6.3,0.7l-2.8-1.4c-2.1-1.4-2.8-4.2-0.7-6.3l17.4-21.6c1.4-2.1,4.2-2.1,6.3-0.7
	l25.8,18.1c2.1,1.4,4.9,0.7,6.3-0.7l17.4-21.6c1.4-2.1,4.2-2.1,6.3-0.7l23.7,18.8c2.1,1.4,4.9,1.4,6.3-0.7l18.8-23.7
	C355.5,205.7,359,205.7,361.1,207.8z"/>
</svg>
